# Bathroom
# (C) Linux Studio Plugins Project

o Door
v 4.967951 -3.009351 -1.892031
v 4.967951 -3.009351 0.557180
v 4.967951 -1.409351 -1.892031
v 4.967951 -1.409351 0.557180
v 4.987951 -3.009351 -1.892031
v 4.987951 -3.009351 0.557180
v 4.987951 -1.409351 -1.892031
v 4.987951 -1.409351 0.557180
vn -1.0000 0.0000 0.0000
vn 0.0000 1.0000 0.0000
vn 1.0000 0.0000 0.0000
vn 0.0000 -1.0000 0.0000
vn 0.0000 0.0000 -1.0000
vn 0.0000 0.0000 1.0000

f 1//1 2//1 4//1 3//1
f 3//2 4//2 8//2 7//2
f 7//3 8//3 6//3 5//3
f 5//4 6//4 2//4 1//4
f 3//5 7//5 5//5 1//5
f 8//6 4//6 2//6 6//6

o Window
v -5.223448 0.982058 -0.907704
v -5.223448 0.982058 1.192296
v -5.223448 3.182058 -0.907704
v -5.223448 3.182058 1.192296
v -5.203448 0.982058 -0.907704
v -5.203448 0.982058 1.192296
v -5.203448 3.182058 -0.907704
v -5.203448 3.182058 1.192296
vn -1.0000 0.0000 0.0000
vn 0.0000 1.0000 0.0000
vn 1.0000 0.0000 0.0000
vn 0.0000 -1.0000 0.0000
vn 0.0000 0.0000 -1.0000
vn 0.0000 0.0000 1.0000

f 9//7 10//7 12//7 11//7
f 11//8 12//8 16//8 15//8
f 15//9 16//9 14//9 13//9
f 13//10 14//10 10//10 9//10
f 11//11 15//11 13//11 9//11
f 16//12 12//12 10//12 14//12

o Walls
v 5.000000 4.000000 -2.313971
v 5.000000 -4.000000 -2.313971
v -5.282050 -3.999999 -2.313971
v -5.282048 4.000001 -2.313971
v 5.000002 3.999998 3.553353
v -5.282049 4.000000 1.753888
v 4.999997 -4.000002 3.553353
v -5.282052 -3.999999 1.753888
v -4.950001 -3.949999 1.409515
v -4.949997 3.950001 -1.950000
v -4.949998 3.950000 1.409515
v -4.949999 -3.949999 -1.950000
v 4.950001 3.949998 3.163994
v 4.949996 -3.950002 3.163994
v 4.949999 3.950000 -1.950000
v 4.949999 -3.950000 -1.950000
v -5.282049 3.182058 1.192296
v -5.282049 3.143418 1.192296
v -4.949998 3.182058 1.192296
v -5.282050 0.982058 1.192296
v -4.949999 0.982058 1.192296
v -5.282049 0.982058 -0.881758
v -4.949998 0.982058 -0.907704
v -5.282049 0.982058 -0.907704
v -4.949998 1.202007 -0.907704
v -5.282049 3.182058 -0.907704
v -4.949998 3.182058 -0.907704
v -4.949999 1.770640 1.192296
v 5.000000 -1.409351 0.557180
v 4.949998 -1.409351 0.557180
v 4.949998 -1.495776 0.557180
v 4.999998 -3.009351 0.557180
v 4.949998 -3.009351 0.557180
v 4.999999 -3.009351 -1.892031
v 4.949998 -3.009351 -1.877280
v 4.949998 -3.009351 -1.892031
v 4.999999 -3.008896 -1.892031
v 5.000000 -1.409351 -1.892031
v 4.949998 -1.409351 -1.892031
v 4.999999 -1.409350 0.496368
vn 0.0000 0.0000 -1.0000
vn 0.0000 1.0000 0.0000
vn 1.0000 -0.0000 -0.0000
vn -0.0000 -1.0000 -0.0000
vn -1.0000 0.0000 -0.0000
vn -0.1724 0.0000 0.9850
vn 0.1745 -0.0000 -0.9847
vn -0.0000 0.0000 1.0000

f 17//13 18//13 19//13 20//13
f 21//14 17//14 20//14 22//14
f 17//15 21//15 23//15 18//15 53//15 50//15 48//15 45//15 56//15
f 17//15 56//15 54//15 53//15 18//15
f 18//16 23//16 24//16 19//16
f 22//17 20//17 19//17 38//17 40//17 42//17 33//17 34//17
f 21//18 22//18 24//18 23//18
f 24//17 22//17 34//17 36//17 38//17 19//17
f 25//15 44//15 35//15 43//15 41//15 26//15 27//15
f 25//15 28//15 26//15 41//15 39//15 37//15 44//15
f 29//19 30//19 25//19 27//19
f 29//16 27//16 26//16 31//16
f 32//14 28//14 25//14 30//14
f 31//20 26//20 28//20 32//20
f 31//17 32//17 51//17 52//17 55//17 46//17 47//17 30//17 29//17
f 32//17 30//17 47//17 49//17 51//17
f 42//16 43//16 35//16 33//16
f 40//20 39//20 41//20 43//20 42//20
f 39//14 40//14 38//14 36//14 37//14
f 37//13 36//13 34//13 33//13 35//13 44//13
f 55//16 54//16 56//16 45//16 46//16
f 52//20 50//20 53//20 54//20 55//20
f 50//14 52//14 51//14 49//14 48//14
f 48//13 49//13 47//13 46//13 45//13
