# Buildings
# (C) Linux Studio Plugins Project

o Garage Roof
v 0.802692 -34.910152 2.750000
v 26.043318 -34.910152 2.750000
v 0.802692 -40.160152 3.000000
v 26.043318 -40.160152 3.000000
v 0.802692 -34.904907 2.849875
v 26.043318 -34.904907 2.849875
v 26.043318 -40.154907 3.099875
v 0.802692 -40.154907 3.099875
vn 0.0000 -0.0476 -0.9989
vn 0.0000 0.0476 0.9989
vn 0.0000 -0.9986 0.0524
vn 0.0000 0.9986 -0.0524
vn -1.0000 0.0000 0.0000
vn 1.0000 0.0000 0.0000

f 4//1 3//1 1//1 2//1
f 7//2 6//2 5//2 8//2
f 3//3 4//3 7//3 8//3
f 2//4 1//4 5//4 6//4
f 1//5 3//5 8//5 5//5
f 4//6 2//6 6//6 7//6

o Garage
v 0.923005 -35.035152 0.000000
v 0.923005 -35.035152 2.750000
v 25.923004 -35.035152 0.000000
v 25.923004 -35.035152 2.750000
v 0.923005 -40.035152 0.000000
v 0.923005 -40.035152 3.000000
v 25.923004 -40.035152 0.000000
v 25.923004 -40.035152 3.000000
vn 0.0000 1.0000 0.0000
vn 1.0000 0.0000 0.0000
vn 0.0000 -1.0000 0.0000
vn -1.0000 0.0000 0.0000
vn 0.0000 0.0000 -1.0000
vn 0.0000 0.0499 0.9988

f 9//7 10//7 12//7 11//7
f 11//8 12//8 16//8 15//8
f 15//9 16//9 14//9 13//9
f 13//10 14//10 10//10 9//10
f 11//11 15//11 13//11 9//11
f 16//12 12//12 10//12 14//12

o Ground
v -6.000000 5.000000 -0.500000
v -6.076859 4.219639 -0.500000
v -6.304482 3.469266 -0.500000
v -6.674122 2.777719 -0.500000
v -7.171573 2.171573 -0.500000
v -7.777719 1.674121 -0.500000
v -8.469267 1.304482 -0.500000
v -9.219639 1.076859 -0.500000
v -10.000000 1.000000 -0.500000
v -10.780360 1.076859 -0.500000
v -11.530733 1.304482 -0.500000
v -12.222281 1.674121 -0.500000
v -12.828427 2.171573 -0.500000
v -13.325880 2.777719 -0.500000
v -13.695518 3.469267 -0.500000
v -13.923141 4.219640 -0.500000
v -14.000001 5.000001 -0.500000
v -13.923141 5.780363 -0.500000
v -13.695518 6.530735 -0.500000
v -13.325877 7.222283 -0.500000
v -12.828426 7.828429 -0.500000
v -12.222280 8.325880 -0.500000
v -11.530731 8.695519 -0.500000
v -10.780358 8.923142 -0.500000
v -9.999996 9.000000 -0.500000
v -9.219635 8.923141 -0.500000
v -8.469262 8.695517 -0.500000
v -7.777715 8.325876 -0.500000
v -7.171570 7.828424 -0.500000
v -6.674119 7.222277 -0.500000
v -6.304480 6.530728 -0.500000
v -6.076858 5.780355 -0.500000
v -90.000000 90.000000 -2.000000
v -90.000000 90.000000 0.000000
v 90.000000 90.000000 -2.000000
v 90.000000 90.000000 0.000000
v -90.000000 -90.000000 -2.000000
v -90.000000 -90.000000 0.000000
v 90.000000 -90.000000 -2.000000
v 90.000000 -90.000000 0.000000
v -6.304480 6.530728 0.000000
v -6.076858 5.780355 0.000000
v -6.000000 5.000000 0.000000
v -6.076859 4.219639 0.000000
v -6.304482 3.469266 0.000000
v -12.222281 1.674121 0.000000
v -11.530733 1.304482 0.000000
v -10.780360 1.076859 0.000000
v -7.777715 8.325876 0.000000
v -7.171570 7.828424 0.000000
v -6.674119 7.222277 0.000000
v -10.000000 1.000000 0.000000
v -9.219639 1.076859 0.000000
v -6.674122 2.777719 0.000000
v -8.469267 1.304482 0.000000
v -9.999996 9.000000 0.000000
v -9.219635 8.923141 0.000000
v -8.469262 8.695517 0.000000
v -12.828426 7.828429 0.000000
v -13.325877 7.222283 0.000000
v -14.000001 5.000001 0.000000
v -11.530731 8.695519 0.000000
v -10.780358 8.923142 0.000000
v -13.923141 4.219640 0.000000
v -12.828427 2.171573 0.000000
v -7.171573 2.171573 0.000000
v -13.325880 2.777719 0.000000
v -13.695518 6.530735 0.000000
v -12.222280 8.325880 0.000000
v -13.923141 5.780363 0.000000
v -13.695518 3.469267 0.000000
v -7.777719 1.674121 0.000000
vn -0.9952 0.0980 0.0000
vn -0.9569 0.2903 0.0000
vn -0.8819 0.4714 0.0000
vn -0.7730 0.6344 0.0000
vn -0.6344 0.7730 0.0000
vn -0.4714 0.8819 0.0000
vn -0.2903 0.9569 0.0000
vn -0.0980 0.9952 0.0000
vn 0.0980 0.9952 0.0000
vn 0.2903 0.9569 0.0000
vn 0.4714 0.8819 0.0000
vn 0.6344 0.7730 0.0000
vn 0.7730 0.6344 0.0000
vn 0.8819 0.4714 0.0000
vn 0.9569 0.2903 0.0000
vn 0.9952 0.0980 0.0000
vn 0.9952 -0.0980 0.0000
vn 0.9569 -0.2903 0.0000
vn 0.8819 -0.4714 0.0000
vn 0.7730 -0.6344 0.0000
vn 0.6344 -0.7730 0.0000
vn 0.4714 -0.8819 0.0000
vn 0.2903 -0.9569 0.0000
vn 0.0980 -0.9952 0.0000
vn -0.0980 -0.9952 0.0000
vn -0.2903 -0.9569 0.0000
vn -0.4714 -0.8819 0.0000
vn -0.6344 -0.7730 0.0000
vn -0.7730 -0.6344 0.0000
vn -0.8819 -0.4714 0.0000
vn -0.9569 -0.2903 0.0000
vn -0.9952 -0.0980 0.0000
vn 0.0000 0.0000 1.0000
vn 0.0000 1.0000 0.0000
vn 1.0000 0.0000 0.0000
vn 0.0000 -1.0000 0.0000
vn -1.0000 0.0000 0.0000
vn 0.0000 0.0000 -1.0000

f 17//13 18//13 60//13 59//13
f 18//14 19//14 61//14 60//14
f 19//15 20//15 70//15 61//15
f 20//16 21//16 82//16 70//16
f 21//17 22//17 88//17 82//17
f 22//18 23//18 71//18 88//18
f 23//19 24//19 69//19 71//19
f 24//20 25//20 68//20 69//20
f 25//21 26//21 64//21 68//21
f 26//22 27//22 63//22 64//22
f 27//23 28//23 62//23 63//23
f 28//24 29//24 81//24 62//24
f 29//25 30//25 83//25 81//25
f 30//26 31//26 87//26 83//26
f 31//27 32//27 80//27 87//27
f 32//28 33//28 77//28 80//28
f 33//29 34//29 86//29 77//29
f 34//30 35//30 84//30 86//30
f 35//31 36//31 76//31 84//31
f 36//32 37//32 75//32 76//32
f 37//33 38//33 85//33 75//33
f 38//34 39//34 78//34 85//34
f 39//35 40//35 79//35 78//35
f 40//36 41//36 72//36 79//36
f 41//37 42//37 73//37 72//37
f 42//38 43//38 74//38 73//38
f 43//39 44//39 65//39 74//39
f 44//40 45//40 66//40 65//40
f 45//41 46//41 67//41 66//41
f 46//42 47//42 57//42 67//42
f 47//43 48//43 58//43 57//43
f 48//44 17//44 59//44 58//44
f 17//45 48//45 47//45 46//45 45//45 44//45 43//45 42//45 41//45 40//45 39//45 38//45 37//45 36//45 35//45 34//45 33//45 32//45 31//45 30//45 29//45 28//45 27//45 26//45 25//45 24//45 23//45 22//45 21//45 20//45 19//45 18//45
f 49//46 50//46 52//46 51//46
f 51//47 52//47 56//47 55//47
f 55//48 56//48 54//48 53//48
f 53//49 54//49 50//49 49//49
f 51//50 55//50 53//50 49//50
f 56//45 52//45 50//45 72//45 73//45 74//45 65//45 66//45 67//45 57//45 58//45 59//45 60//45 61//45 70//45 82//45 88//45 71//45 69//45 68//45 54//45
f 54//45 68//45 64//45 63//45 62//45 81//45 83//45 87//45 80//45 77//45 86//45 84//45 76//45 75//45 85//45 78//45 79//45 72//45 50//45

o Fountain
v -6.000000 5.000000 -0.500000
v -6.000000 5.000000 0.500000
v -6.076859 4.219639 -0.500000
v -6.076859 4.219639 0.500000
v -6.304482 3.469266 -0.500000
v -6.304482 3.469266 0.500000
v -6.674122 2.777719 -0.500000
v -6.674122 2.777719 0.500000
v -7.171573 2.171573 -0.500000
v -7.171573 2.171573 0.500000
v -7.777719 1.674121 -0.500000
v -7.777719 1.674121 0.500000
v -8.469266 1.304482 -0.500000
v -8.469266 1.304482 0.500000
v -9.219639 1.076859 -0.500000
v -9.219639 1.076859 0.500000
v -10.000000 1.000000 -0.500000
v -10.000000 1.000000 0.500000
v -10.780361 1.076859 -0.500000
v -10.780361 1.076859 0.500000
v -11.530733 1.304482 -0.500000
v -11.530733 1.304482 0.500000
v -12.222281 1.674121 -0.500000
v -12.222281 1.674121 0.500000
v -12.828427 2.171573 -0.500000
v -12.828427 2.171573 0.500000
v -13.325878 2.777719 -0.500000
v -13.325878 2.777719 0.500000
v -13.695518 3.469267 -0.500000
v -13.695518 3.469267 0.500000
v -13.923141 4.219640 -0.500000
v -13.923141 4.219640 0.500000
v -14.000000 5.000001 -0.500000
v -14.000000 5.000001 0.500000
v -13.923141 5.780363 -0.500000
v -13.923141 5.780363 0.500000
v -13.695518 6.530735 -0.500000
v -13.695518 6.530735 0.500000
v -13.325877 7.222283 -0.500000
v -13.325877 7.222283 0.500000
v -12.828425 7.828429 -0.500000
v -12.828425 7.828429 0.500000
v -12.222279 8.325880 -0.500000
v -12.222279 8.325880 0.500000
v -11.530731 8.695519 -0.500000
v -11.530731 8.695519 0.500000
v -10.780357 8.923141 -0.500000
v -10.780357 8.923141 0.500000
v -9.999996 9.000000 -0.500000
v -9.999996 9.000000 0.500000
v -9.219635 8.923141 -0.500000
v -9.219635 8.923141 0.500000
v -8.469262 8.695517 -0.500000
v -8.469262 8.695517 0.500000
v -7.777715 8.325876 -0.500000
v -7.777715 8.325876 0.500000
v -7.171569 7.828424 -0.500000
v -7.171569 7.828424 0.500000
v -6.674119 7.222277 -0.500000
v -6.674119 7.222277 0.500000
v -6.304480 6.530728 -0.500000
v -6.304480 6.530728 0.500000
v -6.076858 5.780355 -0.500000
v -6.076858 5.780355 0.500000
v -6.292632 4.262558 0.500000
v -6.220000 5.000000 0.500000
v -6.507735 3.553457 0.500000
v -6.857045 2.899945 0.500000
v -7.327137 2.327137 0.500000
v -7.899945 1.857045 0.500000
v -8.553456 1.507736 0.500000
v -9.262558 1.292632 0.500000
v -10.000000 1.220000 0.500000
v -10.737441 1.292632 0.500000
v -11.446543 1.507735 0.500000
v -12.100055 1.857045 0.500000
v -12.672863 2.327137 0.500000
v -13.142955 2.899945 0.500000
v -13.492265 3.553457 0.500000
v -13.707368 4.262559 0.500000
v -13.780000 5.000001 0.500000
v -13.707368 5.737443 0.500000
v -13.492264 6.446545 0.500000
v -13.142954 7.100057 0.500000
v -12.672862 7.672865 0.500000
v -12.100053 8.142956 0.500000
v -11.446541 8.492266 0.500000
v -10.737438 8.707369 0.500000
v -9.999996 8.780000 0.500000
v -9.262554 8.707367 0.500000
v -8.553452 8.492263 0.500000
v -7.899940 8.142952 0.500000
v -7.327133 7.672860 0.500000
v -6.857042 7.100051 0.500000
v -6.507733 6.446538 0.500000
v -6.292631 5.737436 0.500000
v -6.292632 4.262558 -0.297989
v -6.220000 5.000000 -0.297989
v -6.507735 3.553457 -0.297989
v -6.857045 2.899945 -0.297989
v -7.327137 2.327137 -0.297989
v -7.899945 1.857045 -0.297989
v -8.553456 1.507736 -0.297989
v -9.262558 1.292632 -0.297989
v -10.000000 1.220000 -0.297989
v -10.737441 1.292632 -0.297989
v -11.446543 1.507735 -0.297989
v -12.100055 1.857045 -0.297989
v -12.672863 2.327137 -0.297989
v -13.142955 2.899945 -0.297989
v -13.492265 3.553457 -0.297989
v -13.707368 4.262559 -0.297989
v -13.780000 5.000001 -0.297989
v -13.707368 5.737443 -0.297989
v -13.492264 6.446545 -0.297989
v -13.142954 7.100057 -0.297989
v -12.672862 7.672865 -0.297989
v -12.100053 8.142956 -0.297989
v -11.446541 8.492266 -0.297989
v -10.737438 8.707369 -0.297989
v -9.999996 8.780000 -0.297989
v -9.262554 8.707367 -0.297989
v -8.553452 8.492263 -0.297989
v -7.899940 8.142952 -0.297989
v -7.327133 7.672860 -0.297989
v -6.857042 7.100051 -0.297989
v -6.507733 6.446538 -0.297989
v -6.292631 5.737436 -0.297989
vn 0.9952 -0.0980 0.0000
vn 0.9569 -0.2903 0.0000
vn 0.8819 -0.4714 0.0000
vn 0.7730 -0.6344 0.0000
vn 0.6344 -0.7730 0.0000
vn 0.4714 -0.8819 0.0000
vn 0.2903 -0.9569 0.0000
vn 0.0980 -0.9952 0.0000
vn -0.0980 -0.9952 0.0000
vn -0.2903 -0.9569 0.0000
vn -0.4714 -0.8819 0.0000
vn -0.6344 -0.7730 0.0000
vn -0.7730 -0.6344 0.0000
vn -0.8819 -0.4714 0.0000
vn -0.9569 -0.2903 0.0000
vn -0.9952 -0.0980 0.0000
vn -0.9952 0.0980 0.0000
vn -0.9569 0.2903 0.0000
vn -0.8819 0.4714 0.0000
vn -0.7730 0.6344 0.0000
vn -0.6344 0.7730 0.0000
vn -0.4714 0.8819 0.0000
vn -0.2903 0.9569 0.0000
vn -0.0980 0.9952 0.0000
vn 0.0980 0.9952 0.0000
vn 0.2903 0.9569 0.0000
vn 0.4714 0.8819 0.0000
vn 0.6344 0.7730 0.0000
vn 0.7730 0.6344 0.0000
vn 0.8819 0.4714 0.0000
vn 0.0000 0.0000 1.0000
vn 0.9569 0.2903 0.0000
vn 0.9952 0.0980 0.0000
vn -0.0000 0.0000 -1.0000

f 89//51 90//51 92//51 91//51
f 91//52 92//52 94//52 93//52
f 93//53 94//53 96//53 95//53
f 95//54 96//54 98//54 97//54
f 97//55 98//55 100//55 99//55
f 99//56 100//56 102//56 101//56
f 101//57 102//57 104//57 103//57
f 103//58 104//58 106//58 105//58
f 105//59 106//59 108//59 107//59
f 107//60 108//60 110//60 109//60
f 109//61 110//61 112//61 111//61
f 111//62 112//62 114//62 113//62
f 113//63 114//63 116//63 115//63
f 115//64 116//64 118//64 117//64
f 117//65 118//65 120//65 119//65
f 119//66 120//66 122//66 121//66
f 121//67 122//67 124//67 123//67
f 123//68 124//68 126//68 125//68
f 125//69 126//69 128//69 127//69
f 127//70 128//70 130//70 129//70
f 129//71 130//71 132//71 131//71
f 131//72 132//72 134//72 133//72
f 133//73 134//73 136//73 135//73
f 135//74 136//74 138//74 137//74
f 137//75 138//75 140//75 139//75
f 139//76 140//76 142//76 141//76
f 141//77 142//77 144//77 143//77
f 143//78 144//78 146//78 145//78
f 145//79 146//79 148//79 147//79
f 147//80 148//80 150//80 149//80
f 138//81 136//81 176//81 177//81
f 149//82 150//82 152//82 151//82
f 151//83 152//83 90//83 89//83
f 89//84 91//84 93//84 95//84 97//84 99//84 101//84 103//84 105//84 107//84 109//84 111//84 113//84 115//84 117//84 119//84 121//84 123//84 125//84 127//84 129//84 131//84 133//84 135//84 137//84 139//84 141//84 143//84 145//84 147//84 149//84 151//84
f 160//73 159//73 191//73 192//73
f 94//81 92//81 153//81 155//81
f 112//81 110//81 163//81 164//81
f 130//81 128//81 172//81 173//81
f 148//81 146//81 181//81 182//81
f 104//81 102//81 159//81 160//81
f 122//81 120//81 168//81 169//81
f 140//81 138//81 177//81 178//81
f 96//81 94//81 155//81 156//81
f 114//81 112//81 164//81 165//81
f 132//81 130//81 173//81 174//81
f 150//81 148//81 182//81 183//81
f 106//81 104//81 160//81 161//81
f 124//81 122//81 169//81 170//81
f 142//81 140//81 178//81 179//81
f 98//81 96//81 156//81 157//81
f 116//81 114//81 165//81 166//81
f 134//81 132//81 174//81 175//81
f 152//81 150//81 183//81 184//81
f 108//81 106//81 161//81 162//81
f 126//81 124//81 170//81 171//81
f 144//81 142//81 179//81 180//81
f 100//81 98//81 157//81 158//81
f 118//81 116//81 166//81 167//81
f 136//81 134//81 175//81 176//81
f 92//81 90//81 154//81 153//81
f 90//81 152//81 184//81 154//81
f 110//81 108//81 162//81 163//81
f 128//81 126//81 171//81 172//81
f 146//81 144//81 180//81 181//81
f 102//81 100//81 158//81 159//81
f 120//81 118//81 167//81 168//81
f 185//81 186//81 216//81 215//81 214//81 213//81 212//81 211//81 210//81 209//81 208//81 207//81 206//81 205//81 204//81 203//81 202//81 201//81 200//81 199//81 198//81 197//81 196//81 195//81 194//81 193//81 192//81 191//81 190//81 189//81 188//81 187//81
f 174//55 173//55 205//55 206//55
f 161//74 160//74 192//74 193//74
f 175//56 174//56 206//56 207//56
f 162//75 161//75 193//75 194//75
f 176//57 175//57 207//57 208//57
f 163//76 162//76 194//76 195//76
f 177//58 176//58 208//58 209//58
f 164//77 163//77 195//77 196//77
f 178//59 177//59 209//59 210//59
f 165//78 164//78 196//78 197//78
f 179//60 178//60 210//60 211//60
f 166//79 165//79 197//79 198//79
f 180//61 179//61 211//61 212//61
f 167//80 166//80 198//80 199//80
f 153//67 154//67 186//67 185//67
f 181//62 180//62 212//62 213//62
f 168//82 167//82 199//82 200//82
f 155//68 153//68 185//68 187//68
f 182//63 181//63 213//63 214//63
f 169//83 168//83 200//83 201//83
f 156//69 155//69 187//69 188//69
f 183//64 182//64 214//64 215//64
f 170//51 169//51 201//51 202//51
f 157//70 156//70 188//70 189//70
f 184//65 183//65 215//65 216//65
f 171//52 170//52 202//52 203//52
f 158//71 157//71 189//71 190//71
f 154//66 184//66 216//66 186//66
f 172//53 171//53 203//53 204//53
f 159//72 158//72 190//72 191//72
f 173//54 172//54 204//54 205//54

o Roof 4
v -63.000000 -67.500000 16.000000
v -59.000000 -60.500000 19.000000
v -63.000000 -53.500000 16.000000
v 12.000000 -67.500000 16.000000
v 8.000000 -60.500000 19.000000
v 12.000000 -53.500000 16.000000
vn -0.6000 0.0000 0.8000
vn 0.0000 0.3939 0.9191
vn 0.6000 0.0000 0.8000
vn 0.0000 -0.3939 0.9191
vn 0.0000 0.0000 -1.0000

f 217//85 218//85 219//85
f 219//86 218//86 221//86 222//86
f 222//87 221//87 220//87
f 220//88 221//88 218//88 217//88
f 219//89 222//89 220//89 217//89

o Roof 3
v -63.000000 37.500000 16.000000
v -56.000000 33.500000 19.000000
v -49.000000 37.500000 16.000000
v -63.000000 -37.500000 16.000000
v -56.000000 -33.500000 19.000000
v -49.000000 -37.500000 16.000000
vn 0.0000 0.6000 0.8000
vn 0.3939 0.0000 0.9191
vn 0.0000 -0.6000 0.8000
vn -0.3939 0.0000 0.9191
vn 0.0000 0.0000 -1.0000
f 223//90 224//90 225//90
f 225//91 224//91 227//91 228//91
f 228//92 227//92 226//92
f 226//93 227//93 224//93 223//93
f 225//94 228//94 226//94 223//94

o Roof 2
v -63.000000 53.500000 16.000000
v -59.000000 60.500000 19.000000
v -63.000000 67.500000 16.000000
v 12.000000 53.500000 16.000000
v 8.000000 60.500000 19.000000
v 12.000000 67.500000 16.000000
vn -0.6000 0.0000 0.8000
vn 0.0000 0.3939 0.9191
vn 0.6000 0.0000 0.8000
vn 0.0000 -0.3939 0.9191
vn 0.0000 0.0000 -1.0000

f 229//95 230//95 231//95
f 231//96 230//96 233//96 234//96
f 234//97 233//97 232//97
f 232//98 233//98 230//98 229//98
f 231//99 234//99 232//99 229//99

o Roof 1
v 22.000000 67.500000 16.000000
v 26.000000 60.499996 19.000000
v 62.000000 67.500000 16.000000
v 54.343586 60.499996 19.000000
v 22.000000 -67.500000 16.000000
v 26.000000 -60.499992 19.000000
v 49.059532 -67.500000 16.000000
v 43.061985 -60.499996 19.000000
v 22.000000 53.499996 16.000000
v 46.687172 53.499996 16.000000
v 22.000000 -53.500004 16.000000
v 37.064438 -53.499996 16.000000
vn 0.0000 0.3939 0.9191
vn 0.4020 -0.0380 0.9148
vn 0.0000 -0.3939 0.9191
vn -0.6000 0.0000 0.8000
vn -0.0000 0.0000 -1.0000
vn -0.4020 0.0369 0.9149

f 235//100 236//100 238//100 237//100
f 237//101 238//101 242//101 241//101
f 241//102 242//102 240//102 239//102
f 239//103 240//103 245//103
f 237//104 241//104 239//104 245//104 246//104 244//104 243//104 235//104
f 242//100 246//100 245//100 240//100
f 246//105 242//105 238//105 244//105
f 244//102 238//102 236//102 243//102
f 243//103 236//103 235//103

o Building 1
v 22.000000 67.500000 0.000000
v 22.000000 67.500000 16.000000
v 62.000000 67.500000 0.000000
v 62.000000 67.500000 16.000000
v 22.000000 -67.500000 0.000000
v 22.000000 -67.500000 16.000000
v 49.059532 -67.500000 0.000000
v 49.059532 -67.500000 16.000000
v 22.000000 53.499996 0.000000
v 46.687172 53.500000 15.999997
v 22.000000 53.499996 16.000000
v 46.687172 53.499996 0.000001
v 22.000000 -53.499989 16.000000
v 37.064438 -53.500000 15.999997
v 22.000000 -53.500004 0.000000
v 37.064438 -53.499996 0.000001
vn 0.0000 1.0000 0.0000
vn 0.9954 -0.0954 0.0000
vn 0.0000 -1.0000 0.0000
vn -1.0000 0.0000 0.0000
vn -0.0000 0.0000 -1.0000
vn -0.0000 0.0000 1.0000
vn -0.9960 0.0896 0.0000

f 247//106 248//106 250//106 249//106
f 249//107 250//107 254//107 253//107
f 253//108 254//108 252//108 251//108
f 251//109 252//109 259//109 261//109
f 249//110 253//110 251//110 261//110 262//110 258//110 255//110 247//110
f 254//111 250//111 248//111 257//111 256//111 260//111 259//111 252//111
f 260//106 262//106 261//106 259//106
f 262//112 260//112 256//112 258//112
f 258//108 256//108 257//108 255//108
f 255//109 257//109 248//109 247//109

o Building 2
v -63.000000 53.500000 0.000000
v -63.000000 53.500000 16.000000
v -63.000000 67.500000 0.000000
v -63.000000 67.500000 16.000000
v 12.000000 53.500000 0.000000
v 12.000000 53.500000 16.000000
v 12.000000 67.500000 0.000000
v 12.000000 67.500000 16.000000
vn -1.0000 0.0000 0.0000
vn 0.0000 1.0000 0.0000
vn 1.0000 0.0000 0.0000
vn 0.0000 -1.0000 0.0000
vn 0.0000 0.0000 -1.0000
vn 0.0000 0.0000 1.0000

f 263//113 264//113 266//113 265//113
f 265//114 266//114 270//114 269//114
f 269//115 270//115 268//115 267//115
f 267//116 268//116 264//116 263//116
f 265//117 269//117 267//117 263//117
f 270//118 266//118 264//118 268//118

o Building 4
v -63.000000 -67.500000 0.000000
v -63.000000 -67.500000 16.000000
v -63.000000 -53.500000 0.000000
v -63.000000 -53.500000 16.000000
v 12.000000 -67.500000 0.000000
v 12.000000 -67.500000 16.000000
v 12.000000 -53.500000 0.000000
v 12.000000 -53.500000 16.000000
vn -1.0000 0.0000 0.0000
vn 0.0000 1.0000 0.0000
vn 1.0000 0.0000 0.0000
vn 0.0000 -1.0000 0.0000
vn 0.0000 0.0000 -1.0000
vn 0.0000 0.0000 1.0000

f 271//119 272//119 274//119 273//119
f 273//120 274//120 278//120 277//120
f 277//121 278//121 276//121 275//121
f 275//122 276//122 272//122 271//122
f 273//123 277//123 275//123 271//123
f 278//124 274//124 272//124 276//124

o Building 3
v -63.000000 37.500000 0.000000
v -63.000000 37.500000 16.000000
v -49.000000 37.500000 0.000000
v -49.000000 37.500000 16.000000
v -63.000000 -37.500000 0.000000
v -63.000000 -37.500000 16.000000
v -49.000000 -37.500000 0.000000
v -49.000000 -37.500000 16.000000
vn 0.0000 1.0000 0.0000
vn 1.0000 0.0000 0.0000
vn 0.0000 -1.0000 0.0000
vn -1.0000 0.0000 0.0000
vn 0.0000 0.0000 -1.0000
vn 0.0000 0.0000 1.0000

f 279//125 280//125 282//125 281//125
f 281//126 282//126 286//126 285//126
f 285//127 286//127 284//127 283//127
f 283//128 284//128 280//128 279//128
f 281//129 285//129 283//129 279//129
f 286//130 282//130 280//130 284//130
