# Developer's Room
# (C) Linux Studio Plugins Project
vn 1 0 0
vn -1 0 0
vn 0 1 0
vn 0 -1 0
vn 0 0 1
vn 0 0 -1

o Brick Walls
v -1.95 2.08 -1.75
v -1.95 2.08 1.55
v -1.95 -2.08 -1.75
v -1.95 -2.08 1.55

v -1.00 2.08 -1.75
v -1.00 2.08 -0.77
v -1.00 2.08 1.17
v -1.00 2.08 1.55

v -1.00 2.58 -2.05
v -1.00 2.58 -0.77
v -1.00 2.58 1.17
v -1.00 2.58 1.85

v 0.54 2.08 -1.75
v 0.54 2.08 -0.77
v 0.54 2.08 1.17
v 0.54 2.08 1.55

v 0.54 2.58 -2.05
v 0.54 2.58 -0.77
v 0.54 2.58 1.17
v 0.54 2.58 1.85

v -2.45 2.58 -2.05
v -2.45 2.58 1.85
v -2.45 -2.18 -2.05
v -2.45 -2.18 1.85

v -0.11 -2.08 -1.55
v -0.11 -2.08 0.71
v -0.11 -2.08 1.55
v -0.11 -2.18 -1.55
v -0.11 -2.18 0.71
v -0.11 -2.18 1.85

v 1.23 -2.08 -1.55
v 1.23 -2.08 0.71
v 1.23 -2.08 1.55
v 1.23 -2.18 -1.55
v 1.23 -2.18 0.71
v 1.23 -2.18 1.85

v 1.95 -2.08 -1.75
v 1.95 -2.08 1.55
v 2.05 -2.18 -2.05
v 2.05 -2.18 1.85

v 1.95 2.08 -1.75
v 1.95 2.08 1.55
v 2.05 2.58 -2.05
v 2.05 2.58 1.85

v -0.11 -2.18 -2.05
v 1.23 -2.18 -2.05

v -0.11 -2.08 -1.75
v 1.23 -2.08 -1.75

v -1.95 2.08 -1.55
v -1.95 -2.08 -1.55
v 1.95 -2.08 -1.55
v 1.95 2.08 -1.55
v -1.95 2.08 -1.60
v -1.95 -2.08 -1.60
v 1.95 -2.08 -1.60
v 1.95 2.08 -1.60

v -1.95 2.08 1.36
v -1.95 -2.08 1.36
v 1.95 -2.08 1.36
v 1.95 2.08 1.36
v -1.95 2.08 1.35
v -1.95 -2.08 1.35
v 1.95 -2.08 1.35
v 1.95 2.08 1.35

v -1.00 2.48 1.17
v -1.00 2.43 1.17
v 0.54 2.43 1.17
v 0.54 2.48 1.17
v -1.00 2.48 -0.77
v -1.00 2.43 -0.77
v 0.54 2.43 -0.77
v 0.54 2.48 -0.77

v -0.11 -2.10 0.71
v -0.11 -2.16 0.71
v 1.23 -2.16 0.71
v 1.23 -2.10 0.71
v -0.11 -2.10 -1.55
v -0.11 -2.16 -1.55
v 1.23 -2.16 -1.55
v 1.23 -2.10 -1.55

f 1//1 2//1 4//1 3//1

f 1//4 5//4 8//4 2//4
f 5//4 13//4 14//4 6//4
f 7//4 15//4 16//4 8//4
f 6//1 10//1 11//1 7//1
f 6//5 14//5 18//5 10//5
f 7//6 11//6 19//6 15//6
f 14//2 15//2 19//2 18//2

f 9//3 21//3 22//3 12//3
f 21//2 23//2 24//2 22//2
f 9//3 10//3 18//3 17//3
f 11//3 12//3 20//3 19//3

f 23//4 45//4 30//4 24//4
f 3//3 4//3 27//3 47//3
f 34//2 35//2 32//2 31//2
f 26//3 27//3 33//3 32//3
f 29//4 35//4 36//4 30//4
f 26//6 32//6 35//6 29//6

f 48//3 33//3 38//3 37//3
f 46//4 39//4 40//4 36//4

f 37//2 38//2 42//2 41//2
f 39//1 43//1 44//1 40//1
f 43//3 17//3 20//3 44//3 
f 13//4 41//4 42//4 16//4

f 45//4 46//4 34//4 28//4
f 25//5 28//5 34//5 31//5
f 28//1 25//1 26//1 29//1 
f 47//3 25//3 31//3 48//3

f 1//5 3//5 37//5 41//5
f 43//6 39//6 23//6 21//6
f 2//6 42//6 38//6 4//6 
f 22//5 24//5 40//5 44//5

o Floor
f 49//5 50//5 51//5 52//5
f 53//6 56//6 55//6 54//6
f 55//4 51//4 50//4 54//4
f 53//3 49//3 52//3 56//3
f 55//1 56//1 52//1 51//1
f 49//2 53//2 54//2 50//2 

o Ceiling
f 57//5 58//5 59//5 60//5
f 61//6 64//6 63//6 62//6
f 63//4 59//4 58//4 62//4
f 61//3 57//3 60//3 64//3
f 63//1 64//1 60//1 59//1
f 57//2 61//2 62//2 58//2

o Window
f 65//5 66//5 67//5 68//5
f 69//6 72//6 71//6 70//6
f 71//4 67//4 66//4 70//4
f 69//3 65//3 68//3 72//3
f 71//1 72//1 68//1 67//1
f 65//2 69//2 70//2 66//2

o Doors
f 73//5 74//5 75//5 76//5
f 77//6 80//6 79//6 78//6
f 79//4 75//4 74//4 78//4
f 77//3 73//3 76//3 80//3
f 79//1 80//1 76//1 75//1
f 73//2 77//2 78//2 74//2

