# Swimming Pool
# (C) Linux Studio Plugins Project

o Main window
v -29.000000 -22.700001 1.500000
v -29.000000 -22.700001 13.500000
v 29.000000 -22.700001 1.500000
v 29.000000 -22.700001 13.500000
v -29.000000 -22.799999 1.500000
v -29.000000 -22.799999 13.500000
v 29.000000 -22.799999 1.500000
v 29.000000 -22.799999 13.500000
vn 0.0000 1.0000 0.0000
vn 1.0000 0.0000 0.0000
vn 0.0000 -1.0000 0.0000
vn -1.0000 0.0000 0.0000
vn 0.0000 0.0000 -1.0000
vn 0.0000 0.0000 1.0000
f 1//1 2//1 4//1 3//1
f 3//2 4//2 8//2 7//2
f 7//3 8//3 6//3 5//3
f 5//4 6//4 2//4 1//4
f 3//5 7//5 5//5 1//5
f 8//6 4//6 2//6 6//6

o Doors
v -30.110001 -19.500000 -0.950000
v -30.110001 -19.500000 1.550000
v -30.090000 -19.500000 -0.950000
v -30.090000 -19.500000 1.550000
v -30.110001 -21.500000 -0.950000
v -30.110001 -21.500000 1.550000
v -30.090000 -21.500000 -0.950000
v -30.090000 -21.500000 1.550000
v 30.089998 -19.500000 -0.950000
v 30.089998 -19.500000 1.550000
v 30.109999 -19.500000 -0.950000
v 30.109999 -19.500000 1.550000
v 30.089998 -21.500000 -0.950000
v 30.089998 -21.500000 1.550000
v 30.109999 -21.500000 -0.950000
v 30.109999 -21.500000 1.550000
v 30.089998 21.500000 -0.950000
v 30.089998 21.500000 1.550000
v 30.109999 21.500000 -0.950000
v 30.109999 21.500000 1.550000
v 30.089998 19.500000 -0.950000
v 30.089998 19.500000 1.550000
v 30.109999 19.500000 -0.950000
v 30.109999 19.500000 1.550000
v -30.109999 21.500000 -0.950000
v -30.109999 21.500000 1.550000
v -30.089998 21.500000 -0.950000
v -30.089998 21.500000 1.550000
v -30.109999 19.500000 -0.950000
v -30.109999 19.500000 1.550000
v -30.089998 19.500000 -0.950000
v -30.089998 19.500000 1.550000
vn 0.0000 1.0000 0.0000
vn 1.0000 0.0000 0.0000
vn 0.0000 -1.0000 0.0000
vn -1.0000 0.0000 0.0000
vn 0.0000 0.0000 -1.0000
vn 0.0000 0.0000 1.0000
f 9//7 10//7 12//7 11//7
f 11//8 12//8 16//8 15//8
f 15//9 16//9 14//9 13//9
f 13//10 14//10 10//10 9//10
f 11//11 15//11 13//11 9//11
f 16//12 12//12 10//12 14//12
f 17//7 18//7 20//7 19//7
f 19//8 20//8 24//8 23//8
f 23//9 24//9 22//9 21//9
f 21//10 22//10 18//10 17//10
f 19//11 23//11 21//11 17//11
f 24//12 20//12 18//12 22//12
f 25//7 26//7 28//7 27//7
f 27//8 28//8 32//8 31//8
f 31//9 32//9 30//9 29//9
f 29//10 30//10 26//10 25//10
f 27//11 31//11 29//11 25//11
f 32//12 28//12 26//12 30//12
f 33//7 34//7 36//7 35//7
f 35//8 36//8 40//8 39//8
f 39//9 40//9 38//9 37//9
f 37//10 38//10 34//10 33//10
f 35//11 39//11 37//11 33//11
f 40//12 36//12 34//12 38//12

o Top windows
v 1.000000 35.299999 8.500000
v 1.000000 35.299999 13.500000
v 9.000000 35.299999 8.500000
v 9.000000 35.299999 13.500000
v 1.000000 35.200001 8.500000
v 1.000000 35.200001 13.500000
v 9.000000 35.200001 8.500000
v 9.000000 35.200001 13.500000
v -29.000000 35.299999 8.500000
v -29.000000 35.299999 13.500000
v -21.000000 35.299999 8.500000
v -21.000000 35.299999 13.500000
v -29.000000 35.200001 8.500000
v -29.000000 35.200001 13.500000
v -21.000000 35.200001 8.500000
v -21.000000 35.200001 13.500000
v -19.000000 35.299999 8.500000
v -19.000000 35.299999 13.500000
v -11.000000 35.299999 8.500000
v -11.000000 35.299999 13.500000
v -19.000000 35.200001 8.500000
v -19.000000 35.200001 13.500000
v -11.000000 35.200001 8.500000
v -11.000000 35.200001 13.500000
v -9.000000 35.299999 8.500000
v -9.000000 35.299999 13.500000
v -1.000000 35.299999 8.500000
v -1.000000 35.299999 13.500000
v -9.000000 35.200001 8.500000
v -9.000000 35.200001 13.500000
v -1.000000 35.200001 8.500000
v -1.000000 35.200001 13.500000
v 21.000000 35.299999 8.500000
v 21.000000 35.299999 13.500000
v 29.000000 35.299999 8.500000
v 29.000000 35.299999 13.500000
v 21.000000 35.200001 8.500000
v 21.000000 35.200001 13.500000
v 29.000000 35.200001 8.500000
v 29.000000 35.200001 13.500000
v 11.000000 35.299999 8.500000
v 11.000000 35.299999 13.500000
v 19.000000 35.299999 8.500000
v 19.000000 35.299999 13.500000
v 11.000000 35.200001 8.500000
v 11.000000 35.200001 13.500000
v 19.000000 35.200001 8.500000
v 19.000000 35.200001 13.500000
vn 0.0000 1.0000 0.0000
vn 1.0000 0.0000 0.0000
vn 0.0000 -1.0000 0.0000
vn -1.0000 0.0000 0.0000
vn 0.0000 0.0000 -1.0000
vn 0.0000 0.0000 1.0000
f 41//13 42//13 44//13 43//13
f 43//14 44//14 48//14 47//14
f 47//15 48//15 46//15 45//15
f 45//16 46//16 42//16 41//16
f 43//17 47//17 45//17 41//17
f 48//18 44//18 42//18 46//18
f 49//13 50//13 52//13 51//13
f 51//14 52//14 56//14 55//14
f 55//15 56//15 54//15 53//15
f 53//16 54//16 50//16 49//16
f 51//17 55//17 53//17 49//17
f 56//18 52//18 50//18 54//18
f 57//13 58//13 60//13 59//13
f 59//14 60//14 64//14 63//14
f 63//15 64//15 62//15 61//15
f 61//16 62//16 58//16 57//16
f 59//17 63//17 61//17 57//17
f 64//18 60//18 58//18 62//18
f 65//13 66//13 68//13 67//13
f 67//14 68//14 72//14 71//14
f 71//15 72//15 70//15 69//15
f 69//16 70//16 66//16 65//16
f 67//17 71//17 69//17 65//17
f 72//18 68//18 66//18 70//18
f 73//13 74//13 76//13 75//13
f 75//14 76//14 80//14 79//14
f 79//15 80//15 78//15 77//15
f 77//16 78//16 74//16 73//16
f 75//17 79//17 77//17 73//17
f 80//18 76//18 74//18 78//18
f 81//13 82//13 84//13 83//13
f 83//14 84//14 88//14 87//14
f 87//15 88//15 86//15 85//15
f 85//16 86//16 82//16 81//16
f 83//17 87//17 85//17 81//17
f 88//18 84//18 82//18 86//18

o Main doors
v -1.800000 30.160000 -0.850000
v -1.800000 30.160000 1.650000
v 1.800000 30.160000 -0.850000
v 1.800000 30.160000 1.650000
v -1.800000 30.139999 -0.850000
v -1.800000 30.139999 1.650000
v 1.800000 30.139999 -0.850000
v 1.800000 30.139999 1.650000
vn 0.0000 1.0000 0.0000
vn 1.0000 0.0000 0.0000
vn 0.0000 -1.0000 0.0000
vn -1.0000 0.0000 0.0000
vn 0.0000 0.0000 -1.0000
vn 0.0000 0.0000 1.0000
f 89//19 90//19 92//19 91//19
f 91//20 92//20 96//20 95//20
f 95//21 96//21 94//21 93//21
f 93//22 94//22 90//22 89//22
f 91//23 95//23 93//23 89//23
f 96//24 92//24 90//24 94//24

o Water
v 25.000000 20.000002 -4.000000
v 25.000000 -19.999998 -4.000000
v -25.000000 -20.000002 -2.250000
v -25.000000 19.999998 -2.250000
v -25.000000 19.999998 -1.100000
v -25.000000 -20.000002 -1.100000
v 25.000000 -19.999998 -1.100000
v 25.000000 20.000002 -1.100000
vn 0.0000 -0.0000 -1.0000
vn 0.0000 0.0000 1.0000
vn -1.0000 0.0000 0.0000
vn 0.0000 -1.0000 0.0000
vn 1.0000 0.0000 0.0000
vn -0.0000 1.0000 0.0000
f 97//25 98//25 99//25 100//25
f 101//26 102//26 103//26 104//26
f 100//27 99//27 102//27 101//27
f 99//28 98//28 103//28 102//28
f 98//29 97//29 104//29 103//29
f 97//30 100//30 101//30 104//30

o Walls
v -2.000000 30.000000 -0.900000
v -2.000000 30.000000 2.100000
v 2.000000 30.000000 -0.900000
v 2.000000 30.000000 2.100000
v -2.000000 30.500000 -0.900000
v -2.000000 30.500000 2.100000
v 2.000000 30.500000 -0.900000
v 2.000000 30.500000 2.100000
v -2.500001 32.625000 6.125000
v -29.500002 32.625000 6.125000
v -2.500001 23.125000 -1.000000
v -29.500002 23.124998 -1.000000
v 2.499999 32.625000 6.125000
v 29.499998 32.625000 6.125000
v 2.499999 23.125000 -1.000000
v 29.499998 23.125002 -1.000000
v -25.000000 19.999998 -2.250000
v -25.000000 -20.000002 -2.250000
v 25.000000 -19.999998 -4.000000
v 25.000000 20.000002 -4.000000
v -25.000000 -20.000002 -1.000000
v -25.000000 19.999998 -1.000000
v 25.000000 -19.999998 -1.000000
v 25.000000 20.000002 -1.000000
v -30.000002 22.499998 -1.000000
v -29.999998 -22.500002 -1.000000
v 30.000002 -22.499998 -1.000000
v 29.999998 22.500002 -1.000000
v -30.000002 32.500000 6.500000
v 29.999998 32.500000 6.500000
v -30.000002 35.000000 6.500000
v 29.999998 35.000000 6.500000
v -30.000002 35.000000 14.000000
v 29.999998 35.000000 14.000000
v 30.000002 -22.499998 14.000000
v -29.999998 -22.500002 14.000000
v -30.500002 35.500000 14.500000
v -30.499998 -23.000002 14.500000
v 30.500002 -22.999998 14.500000
v 30.499998 35.500000 14.500000
v 30.499998 35.500000 -6.000000
v 30.500002 -22.999998 -6.000000
v -30.499998 -23.000002 -6.000000
v -30.500002 35.500000 -6.000000
v 2.499998 35.500000 -1.000000
v 29.499998 35.500000 -1.000000
v 2.499998 35.500000 6.125000
v 2.499995 35.500000 5.090163
v 29.499998 35.500000 6.125000
v -2.500002 35.500000 -1.000000
v -29.500002 35.500000 -1.000000
v -29.500002 35.500000 6.125000
v -2.500002 35.500000 6.125000
v -2.499999 35.500000 3.409837
v 2.000000 35.500000 2.100000
v -2.000000 35.500000 2.100000
v -2.000000 35.500000 -0.900000
v 2.000000 35.500000 -0.900000
v 2.000000 35.500000 -0.559017
v 2.000000 26.633333 2.100000
v -2.000000 26.633333 2.100000
v -2.000000 22.633333 -0.900000
v 2.000000 22.633333 -0.900000
v 1.800000 30.500000 1.650000
v 1.800000 30.000000 1.650000
v -1.800000 30.500000 1.650000
v -1.800000 30.000000 1.650000
v -1.800000 30.500000 -0.850000
v -1.800000 30.000000 -0.850000
v 1.800000 30.500000 -0.850000
v 1.800000 30.000000 -0.850000
v 1.800000 30.000000 -0.750000
v -21.000000 35.500000 13.500000
v -21.000000 35.000000 13.500000
v -29.000000 35.000000 8.500000
v -28.999998 35.500000 8.500000
v -21.000000 35.000000 8.500000
v -20.999998 35.500000 8.500000
v -29.000000 35.000000 13.500000
v -28.999998 35.500000 13.500000
v -26.993036 35.500000 13.500000
v -21.000000 35.500000 11.791106
v -11.000000 35.500000 13.500000
v -11.000000 35.000000 13.500000
v -19.000000 35.000000 8.500000
v -19.000000 35.500000 8.500000
v -11.000000 35.000000 8.500000
v -11.000000 35.500000 8.500000
v -19.000000 35.500000 13.500000
v -19.000000 35.000000 13.500000
v -18.999998 35.500000 11.220813
v -19.000004 35.000000 8.715686
v -10.999998 35.500000 8.939640
v -1.000000 35.500000 13.500000
v -1.000000 35.000000 13.500000
v -9.000000 35.000000 8.500000
v -9.000000 35.500000 8.500000
v -1.000000 35.500000 8.500000
v -1.000000 35.000000 8.500000
v -9.000000 35.500000 13.500000
v -9.000000 35.000000 13.500000
v -0.999997 35.000000 9.841464
v 9.000000 35.500000 13.500000
v 9.000000 35.000000 13.500000
v 1.000000 35.500000 8.500000
v 1.000000 35.000000 8.500000
v 9.000000 35.500000 8.500000
v 9.000000 35.000000 8.500000
v 1.000000 35.500000 13.500000
v 1.000000 35.000000 13.500000
v 1.000000 35.500000 8.880953
v 1.000002 35.000000 9.625885
v 8.999998 35.500000 10.404762
v 9.000000 35.000000 8.763573
v 19.000000 35.500000 13.500000
v 19.000000 35.000000 13.500000
v 11.445261 35.000000 8.500000
v 11.000000 35.000000 8.500000
v 11.000000 35.500000 8.500000
v 19.000000 35.500000 8.500000
v 19.000000 35.000000 8.500000
v 11.000000 35.500000 10.785715
v 11.000000 35.500000 13.500000
v 11.000000 35.000000 13.500000
v 11.000001 35.000000 8.547994
v 19.000000 35.500000 12.309525
v 29.000000 35.500000 13.500000
v 29.000000 35.000000 13.500000
v 21.000000 35.000000 8.500000
v 21.000000 35.500000 8.500000
v 29.000000 35.500000 8.500000
v 29.000000 35.000000 8.500000
v 21.000000 35.500000 12.690477
v 21.000000 35.500000 13.500000
v 21.000000 35.000000 13.500000
v 25.249998 35.500000 13.500000
v 30.500000 -21.500000 1.550000
v 30.000000 -21.500000 1.550000
v 30.500000 -21.500000 -0.950000
v 30.000000 -21.500000 -0.950000
v 30.500000 -19.500000 -0.950000
v 30.000000 -19.500000 -0.950000
v 30.500000 -19.500000 1.550000
v 30.000000 -19.500000 1.550000
v 30.500000 19.500000 1.550000
v 30.000000 19.499998 1.550000
v 30.500000 19.500000 -0.950000
v 30.000000 19.500000 -0.950000
v 30.500000 21.500000 -0.950000
v 30.000000 21.500000 -0.950000
v 30.500000 21.500000 1.550000
v 30.000000 21.499998 1.550000
v -30.500000 19.500000 1.550000
v -30.000000 19.499998 1.550000
v -30.500000 19.500000 -0.950000
v -30.000000 19.500000 -0.950000
v -30.500000 21.500000 -0.950000
v -30.000000 21.500000 -0.950000
v -30.000002 21.500002 -0.666667
v -30.500000 21.500000 1.550000
v -30.000000 21.499998 1.550000
v -30.000000 19.499998 0.300000
v -30.500000 -21.499998 1.550000
v -30.000000 -21.500000 1.550000
v -30.000000 -20.884619 -0.950000
v -30.500000 -21.499998 -0.950000
v -30.000000 -21.499998 -0.950000
v -30.000000 -19.499998 -0.950000
v -30.500000 -19.499998 -0.950000
v -30.000000 -19.500000 -0.907143
v -30.500000 -19.499998 1.550000
v -30.000000 -19.500000 1.550000
v 29.000000 -22.999998 13.500000
v 29.000002 -22.499998 13.500000
v -29.000000 -23.000002 1.500000
v -29.000000 -22.500002 1.500000
v 29.000000 -22.999998 1.500000
v 29.000002 -22.499998 1.500000
v -29.000000 -23.000002 13.500000
v -29.000000 -22.500002 13.500000
vn 0.0000 -1.0000 0.0000
vn -1.0000 0.0000 0.0000
vn 0.0000 0.0000 1.0000
vn 0.0000 1.0000 0.0000
vn 1.0000 -0.0000 0.0000
vn 0.0000 0.0000 -1.0000
vn -0.1219 0.3139 -0.9416
vn -0.0000 0.9600 -0.2800
vn -0.0000 0.4295 -0.9031
vn -0.5773 0.5774 -0.5774
vn -0.7071 0.7071 -0.0000
vn -0.5774 0.5774 0.5774
vn 0.1219 0.3139 -0.9416
vn -0.0000 0.1982 -0.9802
vn -0.6000 0.4800 -0.6400
vn 0.6000 0.4800 -0.6400
vn 0.3976 0.8269 0.3976
vn 0.7071 0.7071 0.0000
vn 0.5773 0.5774 -0.5773
vn 0.1647 -0.3119 0.9357
vn 0.0000 -0.1570 0.9876
vn 0.1601 -0.3122 0.9364
vn 0.0000 -0.6000 0.8000
vn 0.0000 -0.1602 0.9871
vn 0.3015 0.9045 -0.3015
vn 0.5774 0.5774 0.5774
vn -0.3015 0.9045 0.3015
vn -0.5774 0.5774 -0.5774

f 105//31 173//31 171//31 169//31 176//31 107//31 108//31 106//31
f 107//32 167//32 164//32 108//32
f 107//33 105//33 166//33 167//33
f 111//34 109//34 110//34 170//34 172//34 174//34
f 109//35 161//35 160//35 110//35
f 112//36 110//36 160//36 159//36
f 162//32 111//32 112//32 159//32 163//32
f 161//33 109//33 111//33 162//33
f 166//35 105//35 106//35 165//35
f 165//36 106//36 108//36 164//36
f 174//32 175//32 176//32 169//32 168//32
f 174//34 168//34 170//34 110//34 112//34 111//34
f 107//31 176//31 175//31 173//31 105//31
f 172//33 173//33 175//33 174//33
f 173//35 172//35 170//35 171//35
f 171//36 170//36 168//36 169//36
f 182//32 181//32 178//32 177//32 186//32
f 180//33 179//33 181//33 182//33
f 179//35 180//35 184//35 183//35
f 183//36 184//36 185//36 177//36 178//36
f 192//32 191//32 188//32 187//32 197//32
f 190//33 189//33 191//33 192//33
f 189//35 190//35 195//35 193//35 194//35 196//35
f 194//36 193//36 187//36 188//36
f 202//32 203//32 206//32 199//32 198//32
f 201//33 200//33 203//33 202//33
f 200//35 201//35 204//35 205//35
f 205//36 204//36 198//36 199//36
f 211//32 212//32 218//32 208//32 207//32 217//32
f 209//33 210//33 212//33 211//33
f 210//35 209//35 215//35 213//35 214//35 216//35
f 214//36 213//36 207//36 208//36
f 224//32 225//32 220//32 219//32 230//32
f 223//33 222//33 221//33 225//33 224//33
f 222//35 223//35 226//35 227//35 228//35 229//35
f 228//36 227//36 219//36 220//36
f 235//32 236//32 232//32 231//32
f 234//33 233//33 236//33 235//33
f 233//35 234//35 237//35 238//35 239//35
f 239//36 238//36 240//36 231//36 232//36
f 243//34 244//34 242//34 241//34
f 246//31 245//31 247//31 248//31
f 245//33 246//33 244//33 243//33
f 241//36 242//36 248//36 247//36
f 251//34 252//34 250//34 249//34
f 254//31 253//31 255//31 256//31
f 253//33 254//33 252//33 251//33
f 249//36 250//36 256//36 255//36
f 260//34 259//34 257//34 258//34 266//34
f 261//31 262//31 263//31 265//31 264//31
f 262//33 261//33 259//33 260//33
f 258//36 257//36 264//36 265//36
f 271//34 270//34 267//34 268//34
f 273//31 272//31 274//31 276//31 275//31
f 272//33 273//33 270//33 271//33 269//33
f 268//36 267//36 275//36 276//36
f 282//32 281//32 277//32 278//32
f 280//33 279//33 281//33 282//33
f 279//35 280//35 284//35 283//35
f 283//36 284//36 278//36 277//36

f 113//37 115//38 116//38 114//39
f 115//32 113//32 157//40 158//41 154//42
f 117//43 118//44 120//45 119//46
f 119//35 149//47 152//48 151//49 117//35
f 121//33 122//33 123//33 124//33
f 121//32 122//32 125//32 126//32
f 122//31 123//31 127//31 125//31
f 123//35 124//35 128//35 127//35
f 124//34 121//34 126//34 128//34
f 129//50 130//33 125//33 126//33
f 130//33 131//33 127//33 125//33
f 131//33 132//51 128//33 127//33
f 132//51 129//50 126//33 128//33
f 133//52 129//50 166//53 165//53 164//53 132//51 134//54
f 135//33 133//52 134//54 136//33
f 137//36 138//36 139//36 140//36
f 137//35 140//35 130//35 269//35 271//35 268//35 276//35 274//35 266//35 258//35 265//35 263//35 129//35 133//35 135//35
f 139//32 138//32 136//32 134//32 132//32 254//32 256//32 250//32 248//32 242//32 131//32
f 140//34 139//34 131//34 282//34 278//34 284//34
f 138//31 178//31 181//31 196//31 194//31 188//31
f 141//33 142//33 143//33 144//33
f 145//36 146//36 147//36 148//36
f 148//32 147//32 257//32 259//32 261//32
f 147//31 146//31 143//31 277//31 281//31 279//31
f 146//35 243//35 241//35 247//35 251//35 249//35 255//35 145//35 144//35 143//35
f 145//34 148//34 141//34 156//55 155//56 154//42 158//41 160//34 161//34 162//34 163//34 149//47 150//57
f 153//58 151//49 152//48 197//34 187//34 204//34 201//34 202//34 215//34 209//34 211//34 217//34 226//34 223//34 224//34 230//34 237//34 234//34 235//34 231//34 240//34 144//34 145//34 150//57
f 153//58 118//44 117//43 151//49
f 150//57 120//32 118//32 153//58
f 149//47 119//33 120//33 150//57
f 152//48 158//41 157//40 156//55 141//34 185//34 184//34 180//34 182//34 186//34 195//34 190//34 192//34 197//34
f 157//40 113//37 114//39 156//55
f 156//55 114//35 116//35 155//56
f 155//56 116//33 115//33 154//42
f 149//47 163//34 159//34 160//34 158//41 152//48
f 132//51 164//53 167//53 166//53 129//50
f 135//31 179//31 183//31 178//31 138//31 137//31
f 188//31 191//31 200//31 205//31 199//31 206//31 216//31 214//31 208//31 218//31 229//31 228//31 220//31 225//31 233//31 239//31 232//31 138//31
f 144//34 240//34 238//34 237//34 230//34 219//34 227//34 226//34 217//34 207//34 213//34 215//34 202//34 198//34 204//34 187//34 193//34 195//34 186//34 177//34 185//34 141//34
f 136//31 221//31 222//31 229//31 218//31 212//31 210//31 216//31 206//31 203//31 200//31 191//31 189//31 196//31 181//31 179//31 135//31
f 138//31 232//31 236//31 233//31 225//31 221//31 136//31
f 131//32 242//32 244//32 246//32 132//32
f 145//35 247//35 245//35 243//35 146//35
f 248//32 250//32 252//32 254//32 132//32 246//32
f 145//35 255//35 253//35 251//35 247//35
f 129//35 263//35 262//35 260//35 266//35 274//35 272//35 269//35 130//35
f 261//32 264//32 257//32 273//32 275//32 267//32 147//32 142//32 141//32 148//32
f 147//32 267//32 270//32 273//32 257//32
f 284//34 280//34 282//34 131//34 130//34 140//34
f 283//31 277//31 143//31 142//31 147//31 279//31
