# Blender v2.79 (sub 0) OBJ File: ''
# www.blender.org
mtllib cone_and_cube.mtl
o Cube_Cube.001
v -1.000000 -0.113848 -1.754170
v -1.000000 1.886152 -1.754170
v -1.000000 -0.113848 -3.754170
v -1.000000 1.886152 -3.754170
v 1.000000 -0.113848 -1.754170
v 1.000000 1.886152 -1.754170
v 1.000000 -0.113848 -3.754170
v 1.000000 1.886152 -3.754170
vn -1.0000 0.0000 0.0000
vn 0.0000 0.0000 -1.0000
vn 1.0000 0.0000 0.0000
vn 0.0000 0.0000 1.0000
vn 0.0000 -1.0000 0.0000
vn 0.0000 1.0000 0.0000
usemtl None
s off
f 1//1 2//1 4//1 3//1
f 3//2 4//2 8//2 7//2
f 7//3 8//3 6//3 5//3
f 5//4 6//4 2//4 1//4
f 3//5 7//5 5//5 1//5
f 8//6 4//6 2//6 6//6
o Cone
v 0.000000 0.002793 -1.000000
v 0.195090 0.002793 -0.980785
v 0.382683 0.002793 -0.923880
v 0.555570 0.002793 -0.831470
v 0.707107 0.002793 -0.707107
v 0.831470 0.002793 -0.555570
v 0.923880 0.002793 -0.382683
v 0.980785 0.002793 -0.195090
v 1.000000 0.002793 -0.000000
v 0.980785 0.002793 0.195090
v 0.923880 0.002793 0.382683
v 0.831470 0.002793 0.555570
v 0.707107 0.002793 0.707107
v 0.555570 0.002793 0.831470
v 0.382683 0.002793 0.923880
v 0.195090 0.002793 0.980785
v -0.000000 0.002793 1.000000
v -0.195091 0.002793 0.980785
v -0.382684 0.002793 0.923879
v -0.555571 0.002793 0.831469
v -0.707107 0.002793 0.707106
v -0.831470 0.002793 0.555570
v -0.923880 0.002793 0.382683
v 0.000000 2.002793 0.000000
v -0.980785 0.002793 0.195089
v -1.000000 0.002793 -0.000001
v -0.980785 0.002793 -0.195091
v -0.923879 0.002793 -0.382684
v -0.831469 0.002793 -0.555571
v -0.707106 0.002793 -0.707108
v -0.555569 0.002793 -0.831470
v -0.382682 0.002793 -0.923880
v -0.195089 0.002793 -0.980786
vn 0.0878 0.4455 -0.8910
vn 0.2599 0.4455 -0.8567
vn 0.4220 0.4455 -0.7896
vn 0.5680 0.4455 -0.6921
vn 0.6921 0.4455 -0.5680
vn 0.7896 0.4455 -0.4220
vn 0.8567 0.4455 -0.2599
vn 0.8910 0.4455 -0.0878
vn 0.8910 0.4455 0.0878
vn 0.8567 0.4455 0.2599
vn 0.7896 0.4455 0.4220
vn 0.6921 0.4455 0.5680
vn 0.5680 0.4455 0.6921
vn 0.4220 0.4455 0.7896
vn 0.2599 0.4455 0.8567
vn 0.0878 0.4455 0.8910
vn -0.0878 0.4455 0.8910
vn -0.2599 0.4455 0.8567
vn -0.4220 0.4455 0.7896
vn -0.5680 0.4455 0.6921
vn -0.6921 0.4455 0.5680
vn -0.7896 0.4455 0.4220
vn -0.8567 0.4455 0.2599
vn -0.8910 0.4455 0.0878
vn -0.8910 0.4455 -0.0878
vn -0.8567 0.4455 -0.2599
vn -0.7896 0.4455 -0.4220
vn -0.6921 0.4455 -0.5680
vn -0.5680 0.4455 -0.6921
vn -0.4220 0.4455 -0.7896
vn -0.2599 0.4455 -0.8567
vn -0.0878 0.4455 -0.8910
vn 0.0000 -1.0000 0.0000
usemtl None
s off
f 9//7 32//7 10//7
f 10//8 32//8 11//8
f 11//9 32//9 12//9
f 12//10 32//10 13//10
f 13//11 32//11 14//11
f 14//12 32//12 15//12
f 15//13 32//13 16//13
f 16//14 32//14 17//14
f 17//15 32//15 18//15
f 18//16 32//16 19//16
f 19//17 32//17 20//17
f 20//18 32//18 21//18
f 21//19 32//19 22//19
f 22//20 32//20 23//20
f 23//21 32//21 24//21
f 24//22 32//22 25//22
f 25//23 32//23 26//23
f 26//24 32//24 27//24
f 27//25 32//25 28//25
f 28//26 32//26 29//26
f 29//27 32//27 30//27
f 30//28 32//28 31//28
f 31//29 32//29 33//29
f 33//30 32//30 34//30
f 34//31 32//31 35//31
f 35//32 32//32 36//32
f 36//33 32//33 37//33
f 37//34 32//34 38//34
f 38//35 32//35 39//35
f 39//36 32//36 40//36
f 40//37 32//37 41//37
f 41//38 32//38 9//38
f 9//39 10//39 11//39 12//39 13//39 14//39 15//39 16//39 17//39 18//39 19//39 20//39 21//39 22//39 23//39 24//39 25//39 26//39 27//39 28//39 29//39 30//39 31//39 33//39 34//39 35//39 36//39 37//39 38//39 39//39 40//39 41//39
