# Developer's room
# (C) Linux Studio Plugins Project
vn 1 0 0
vn -1 0 0
vn 0 1 0
vn 0 -1 0
vn 0 0 1
vn 0 0 -1

o Brick Walls
v -1.95 2.08 -1.55 	# 1
v -1.95 2.08 1.55	# 2
v -1.95 -2.08 -1.55	# 3
v -1.95 -2.08 1.55	# 4

f 1//1 2//1 4//1 3//1

v -1.00 2.08 -1.55 	# 5
v -1.00 2.08 -0.77	# 6
v -1.00 2.08 1.17	# 7
v -1.00 2.08 1.55 	# 8

v -1.00 2.58 -1.55 	# 9
v -1.00 2.58 -0.77	# 10
v -1.00 2.58 1.17	# 11
v -1.00 2.58 1.55 	# 12

v 0.54 2.08 -1.55 	# 13
v 0.54 2.08 -0.77	# 14
v 0.54 2.08 1.17	# 15
v 0.54 2.08 1.55 	# 16

v 0.54 2.58 -1.55 	# 17
v 0.54 2.58 -0.77	# 18
v 0.54 2.58 1.17	# 19
v 0.54 2.58 1.55 	# 20

f 1//4 5//4 8//4 2//4
f 5//4 13//4 14//4 6//4
f 7//4 15//4 16//4 8//4
f 6//1 10//1 11//1 7//1
f 6//5 14//5 18//5 10//5
f 7//6 11//6 19//6 15//6
f 14//2 15//2 19//2 18//2

v -2.45 2.58 -1.55 	# 21
v -2.45 2.58 1.55	# 22
v -2.45 -2.18 -1.55	# 23
v -2.45 -2.18 1.55	# 24

f 9//3 21//3 22//3 12//3
f 21//2 23//2 24//2 22//2

v -0.11 -2.08 -1.55	# 25
v -0.11 -2.08 0.71	# 26
v -0.11 -2.08 1.55	# 27
v -0.11 -2.18 -1.55	# 28
v -0.11 -2.18 0.71	# 29
v -0.11 -2.18 1.55	# 30

v 1.23 -2.08 -1.55	# 31
v 1.23 -2.08 0.71	# 32
v 1.23 -2.08 1.55	# 33
v 1.23 -2.18 -1.55	# 34
v 1.23 -2.18 0.71	# 35
v 1.23 -2.18 1.55	# 36

f 23//4 28//4 30//4 24//4
f 4//3 3//3 27//3 25//3
f 34//2 35//2 32//2 31//2
f 26//3 27//3 33//3 32//3
f 29//4 35//4 36//4 30//4
f 26//6 32//6 35//6 29//6

v 1.95 -2.08 -1.55	# 37
v 1.95 -2.08 1.55	# 38
v 2.05 -2.18 -1.55	# 39
v 2.05 -2.18 1.55	# 40

f 31//3 33//3 38//3 37//3
f 34//4 39//4 40//4 36//4

v 1.95 2.08 -1.55	# 41
v 1.95 2.08 1.55	# 42
v 2.05 2.58 -1.55	# 43
v 2.05 2.58 1.55	# 44

f 37//2 38//2 42//2 41//2
f 39//1 43//1 44//1 40//1
f 43//3 17//3 20//3 44//3 
f 13//4 41//4 42//4 16//4











