# Blender v2.76 (sub 0) OBJ File: 'empty-room-4x4x3.blend'
# www.blender.org
mtllib empty-room-4x4x3.mtl
o Door
v 2.266714 -0.648608 -1.545217
v 2.266714 -0.648608 0.765433
v 2.216482 -0.648608 -1.545217
v 2.216482 -0.648608 0.765433
v 2.266714 1.059263 -1.545217
v 2.266714 1.059263 0.765433
v 2.216482 1.059263 -1.545217
v 2.216482 1.059263 0.765433
vn 0.000000 -1.000000 0.000000
vn -1.000000 0.000000 0.000000
vn 0.000000 1.000000 0.000000
vn 1.000000 0.000000 0.000000
vn 0.000000 0.000000 -1.000000
vn 0.000000 0.000000 1.000000
usemtl None
s off
f 2//1 4//1 3//1 1//1
f 4//2 8//2 7//2 3//2
f 8//3 6//3 5//3 7//3
f 6//4 2//4 1//4 5//4
f 1//5 3//5 7//5 5//5
f 6//6 8//6 4//6 2//6
o Window
v -2.037942 -0.743499 -0.860706
v -2.037942 -0.743499 1.148554
v -2.047989 -0.743499 -0.860706
v -2.047989 -0.743499 1.148554
v -2.037942 0.763446 -0.860706
v -2.037942 0.763446 1.148554
v -2.047989 0.763446 -0.860706
v -2.047989 0.763446 1.148554
vn 0.000000 -1.000000 0.000000
vn -1.000000 0.000000 0.000000
vn 0.000000 1.000000 0.000000
vn 1.000000 0.000000 0.000000
vn 0.000000 0.000000 -1.000000
vn 0.000000 0.000000 1.000000
usemtl None
s off
f 10//7 12//7 11//7 9//7
f 12//8 16//8 15//8 11//8
f 16//9 14//9 13//9 15//9
f 14//10 10//10 9//10 13//10
f 9//11 11//11 15//11 13//11
f 14//12 16//12 12//12 10//12
o Walls
v 2.048766 -1.966648 1.457460
v 2.048766 -1.966648 -1.556431
v -1.969755 -1.966648 -1.556431
v -1.969755 -1.966648 1.457460
v 2.048766 2.051873 1.457460
v -1.969755 2.051873 1.457460
v 2.048766 -0.648608 -1.545217
v 2.048766 1.059263 -1.545217
v 2.048766 1.059263 0.765433
v 2.048766 2.051873 -1.556431
v 2.048766 -0.648608 0.765433
v -1.969755 2.051873 -1.556431
v -1.969755 -0.743499 1.148554
v -1.969755 0.763446 1.148554
v -1.969755 -0.743499 -0.860706
v -1.969755 0.763446 -0.860706
v -2.095058 -0.743499 -0.860706
v -2.095058 -0.743499 1.148554
v -2.095058 0.763446 1.148554
v -2.095058 0.763446 -0.860706
v -2.095058 -2.232847 -1.674479
v -2.095058 -2.232847 1.674051
v -2.095058 2.231859 1.674051
v -2.095058 2.231859 -1.674479
v 2.369649 -2.232847 1.674051
v 2.369649 -2.232847 -1.674479
v 2.369649 2.231859 1.674051
v 2.369649 2.231859 -1.674479
v 2.369649 -0.648608 -1.545217
v 2.369649 -0.648608 0.765433
v 2.369649 1.059263 0.765433
v 2.369649 1.059263 -1.545217
vn 0.000000 1.000000 0.000000
vn 0.000000 0.000000 -1.000000
vn -1.000000 0.000000 0.000000
vn 0.000000 0.000000 1.000000
vn 1.000000 0.000000 0.000000
vn 0.000000 -1.000000 0.000000
usemtl None
s off
f 17//13 18//13 19//13 20//13
f 21//14 17//14 20//14 22//14
f 18//15 23//15 24//15 25//15 21//15 26//15
f 17//15 21//15 25//15 27//15 23//15 18//15
f 18//16 26//16 28//16 19//16
f 29//17 30//17 22//17 20//17 19//17 31//17
f 22//18 28//18 26//18 21//18
f 31//17 19//17 28//17 22//17 30//17 32//17
f 29//13 31//13 33//13 34//13
f 30//14 29//14 34//14 35//14
f 31//16 32//16 36//16 33//16
f 35//18 36//18 32//18 30//18
f 34//15 33//15 37//15 38//15 39//15 35//15
f 33//15 36//15 35//15 39//15 40//15 37//15
f 41//18 38//18 37//18 42//18
f 43//16 39//16 38//16 41//16
f 39//13 43//13 44//13 40//13
f 42//14 37//14 40//14 44//14
f 41//17 42//17 45//17 46//17 47//17 43//17
f 42//17 44//17 43//17 47//17 48//17 45//17
f 46//13 45//13 23//13 27//13
f 47//14 46//14 27//14 25//14
f 45//16 48//16 24//16 23//16
f 25//18 24//18 48//18 47//18
