# Blender v2.76 (sub 0) OBJ File: 'model01.blend'
# www.blender.org
mtllib model01.mtl
o Icosphere
v 2.992846 2.013302 3.022352
v 3.716454 2.566082 3.548077
v 2.716458 2.566082 3.873001
v 2.098420 2.566087 3.022352
v 2.716458 2.566082 2.171703
v 3.716454 2.566082 2.496627
v 3.269234 3.460522 3.873001
v 2.269239 3.460522 3.548077
v 2.269239 3.460522 2.496627
v 3.269234 3.460522 2.171703
v 3.887272 3.460518 3.022352
v 2.992846 4.013302 3.022352
v 2.830391 2.162648 3.522347
v 3.418169 2.162648 3.331363
v 3.255715 2.487565 3.831364
v 3.843494 2.487566 3.022352
v 3.418169 2.162648 2.713341
v 2.467116 2.162650 3.022352
v 2.304657 2.487566 3.522349
v 2.830391 2.162648 2.522357
v 2.304657 2.487566 2.522355
v 3.255715 2.487565 2.213340
v 3.943904 3.013302 3.331365
v 3.943904 3.013302 2.713339
v 2.992846 3.013302 4.022352
v 3.580632 3.013302 3.831369
v 2.041788 3.013302 3.331365
v 2.405061 3.013302 3.831369
v 2.405061 3.013302 2.213335
v 2.041788 3.013302 2.713339
v 3.580632 3.013302 2.213335
v 2.992846 3.013302 2.022352
v 3.681036 3.539038 3.522349
v 2.729977 3.539040 3.831364
v 2.142198 3.539038 3.022352
v 2.729977 3.539040 2.213340
v 3.681036 3.539038 2.522355
v 3.155302 3.863956 3.522347
v 3.518576 3.863954 3.022352
v 2.567523 3.863956 3.331363
v 2.567523 3.863956 2.713341
v 3.155302 3.863956 2.522357
vn 0.102400 -0.943500 0.315100
vn 0.700200 -0.661700 0.268000
vn -0.268000 -0.943500 0.194700
vn -0.268000 -0.943500 -0.194700
vn 0.102400 -0.943500 -0.315100
vn 0.905000 -0.330400 0.268000
vn 0.024700 -0.330400 0.943500
vn -0.889700 -0.330400 0.315100
vn -0.574600 -0.330400 -0.748800
vn 0.534600 -0.330400 -0.777900
vn 0.802600 -0.125600 0.583100
vn -0.306600 -0.125600 0.943500
vn -0.992100 -0.125600 0.000000
vn -0.306600 -0.125600 -0.943500
vn 0.802600 -0.125600 -0.583100
vn 0.408900 0.661700 0.628400
vn -0.471300 0.661700 0.583100
vn -0.700200 0.661700 -0.268000
vn 0.038500 0.661700 -0.748800
vn 0.724000 0.661700 -0.194700
vn 0.268000 0.943500 -0.194700
vn 0.491100 0.794700 -0.356800
vn 0.408900 0.661700 -0.628400
vn -0.102400 0.943500 -0.315100
vn -0.187600 0.794700 -0.577300
vn -0.471300 0.661700 -0.583100
vn -0.331300 0.943500 0.000000
vn -0.607100 0.794700 0.000000
vn -0.700200 0.661700 0.268000
vn -0.102400 0.943500 0.315100
vn -0.187600 0.794700 0.577300
vn 0.038500 0.661700 0.748800
vn 0.268000 0.943500 0.194700
vn 0.491100 0.794700 0.356800
vn 0.724000 0.661700 0.194700
vn 0.889700 0.330400 -0.315100
vn 0.794700 0.187600 -0.577300
vn 0.574600 0.330400 -0.748800
vn -0.024700 0.330400 -0.943500
vn -0.303500 0.187600 -0.934200
vn -0.534600 0.330400 -0.777900
vn -0.905000 0.330400 -0.268000
vn -0.982200 0.187600 0.000000
vn -0.905000 0.330400 0.268000
vn -0.534600 0.330400 0.777900
vn -0.303500 0.187600 0.934200
vn -0.024700 0.330400 0.943500
vn 0.574600 0.330400 0.748800
vn 0.794700 0.187600 0.577300
vn 0.889700 0.330400 0.315100
vn 0.306600 0.125600 -0.943500
vn 0.303500 -0.187600 -0.934200
vn 0.024700 -0.330400 -0.943500
vn -0.802600 0.125600 -0.583100
vn -0.794700 -0.187600 -0.577300
vn -0.889700 -0.330400 -0.315100
vn -0.802600 0.125600 0.583100
vn -0.794700 -0.187600 0.577300
vn -0.574600 -0.330400 0.748800
vn 0.306600 0.125600 0.943500
vn 0.303500 -0.187600 0.934200
vn 0.534600 -0.330400 0.777900
vn 0.992100 0.125600 0.000000
vn 0.982200 -0.187600 0.000000
vn 0.905000 -0.330400 -0.268000
vn 0.471300 -0.661700 -0.583100
vn 0.187600 -0.794700 -0.577300
vn -0.038500 -0.661700 -0.748800
vn -0.408900 -0.661700 -0.628400
vn -0.491100 -0.794700 -0.356800
vn -0.724000 -0.661700 -0.194700
vn -0.724000 -0.661700 0.194700
vn -0.491100 -0.794700 0.356800
vn -0.408900 -0.661700 0.628400
vn 0.700200 -0.661700 -0.268000
vn 0.607100 -0.794700 0.000000
vn 0.331300 -0.943500 0.000000
vn -0.038500 -0.661700 0.748800
vn 0.187600 -0.794700 0.577300
vn 0.471300 -0.661700 0.583100
usemtl None
s off
f 1//1 14//1 13//1
f 2//2 14//2 16//2
f 1//3 13//3 18//3
f 1//4 18//4 20//4
f 1//5 20//5 17//5
f 2//6 16//6 23//6
f 3//7 15//7 25//7
f 4//8 19//8 27//8
f 5//9 21//9 29//9
f 6//10 22//10 31//10
f 2//11 23//11 26//11
f 3//12 25//12 28//12
f 4//13 27//13 30//13
f 5//14 29//14 32//14
f 6//15 31//15 24//15
f 7//16 33//16 38//16
f 8//17 34//17 40//17
f 9//18 35//18 41//18
f 10//19 36//19 42//19
f 11//20 37//20 39//20
f 39//21 42//21 12//21
f 39//22 37//22 42//22
f 37//23 10//23 42//23
f 42//24 41//24 12//24
f 42//25 36//25 41//25
f 36//26 9//26 41//26
f 41//27 40//27 12//27
f 41//28 35//28 40//28
f 35//29 8//29 40//29
f 40//30 38//30 12//30
f 40//31 34//31 38//31
f 34//32 7//32 38//32
f 38//33 39//33 12//33
f 38//34 33//34 39//34
f 33//35 11//35 39//35
f 24//36 37//36 11//36
f 24//37 31//37 37//37
f 31//38 10//38 37//38
f 32//39 36//39 10//39
f 32//40 29//40 36//40
f 29//41 9//41 36//41
f 30//42 35//42 9//42
f 30//43 27//43 35//43
f 27//44 8//44 35//44
f 28//45 34//45 8//45
f 28//46 25//46 34//46
f 25//47 7//47 34//47
f 26//48 33//48 7//48
f 26//49 23//49 33//49
f 23//50 11//50 33//50
f 31//51 32//51 10//51
f 31//52 22//52 32//52
f 22//53 5//53 32//53
f 29//54 30//54 9//54
f 29//55 21//55 30//55
f 21//56 4//56 30//56
f 27//57 28//57 8//57
f 27//58 19//58 28//58
f 19//59 3//59 28//59
f 25//60 26//60 7//60
f 25//61 15//61 26//61
f 15//62 2//62 26//62
f 23//63 24//63 11//63
f 23//64 16//64 24//64
f 16//65 6//65 24//65
f 17//66 22//66 6//66
f 17//67 20//67 22//67
f 20//68 5//68 22//68
f 20//69 21//69 5//69
f 20//70 18//70 21//70
f 18//71 4//71 21//71
f 18//72 19//72 4//72
f 18//73 13//73 19//73
f 13//74 3//74 19//74
f 16//75 17//75 6//75
f 16//76 14//76 17//76
f 14//77 1//77 17//77
f 13//78 15//78 3//78
f 13//79 14//79 15//79
f 14//80 2//80 15//80
o Cube.009
v -1.981742 -1.987268 2.009063
v -1.981742 1.996095 2.009063
v -1.981742 -1.987268 -1.974300
v -1.981742 1.996095 -1.974300
v 2.001621 -1.987268 2.009063
v 2.001621 1.996095 2.009063
v 2.001621 -1.987268 -1.974300
v 2.001621 1.996095 -1.974300
vn -1.000000 0.000000 0.000000
vn 0.000000 0.000000 -1.000000
vn 1.000000 0.000000 0.000000
vn 0.000000 0.000000 1.000000
vn 0.000000 -1.000000 0.000000
vn 0.000000 1.000000 0.000000
usemtl None
s off
f 44//81 46//81 45//81 43//81
f 46//82 50//82 49//82 45//82
f 50//83 48//83 47//83 49//83
f 48//84 44//84 43//84 47//84
f 43//85 45//85 49//85 47//85
f 48//86 50//86 46//86 44//86
o Cube.008
v -3.981286 2.009472 4.017595
v -3.981286 4.009472 4.017595
v -3.981286 2.009472 2.017595
v -3.981286 4.009472 2.017595
v -1.981286 2.009472 4.017595
v -1.981286 4.009472 4.017595
v -1.981286 2.009472 2.017595
v -1.981286 4.009472 2.017595
vn -1.000000 0.000000 0.000000
vn 0.000000 0.000000 -1.000000
vn 1.000000 0.000000 0.000000
vn 0.000000 0.000000 1.000000
vn 0.000000 -1.000000 0.000000
vn 0.000000 1.000000 0.000000
usemtl None
s off
f 52//87 54//87 53//87 51//87
f 54//88 58//88 57//88 53//88
f 58//89 56//89 55//89 57//89
f 56//90 52//90 51//90 55//90
f 51//91 53//91 57//91 55//91
f 56//92 58//92 54//92 52//92
o Cube.007
v 2.001746 2.025113 -1.996242
v 2.001746 4.025113 -1.996242
v 2.001746 2.025113 -3.996242
v 2.001746 4.025113 -3.996242
v 4.001746 2.025113 -1.996242
v 4.001746 4.025113 -1.996242
v 4.001746 2.025113 -3.996242
v 4.001746 4.025113 -3.996242
vn -1.000000 0.000000 0.000000
vn 0.000000 0.000000 -1.000000
vn 1.000000 0.000000 0.000000
vn 0.000000 0.000000 1.000000
vn 0.000000 -1.000000 0.000000
vn 0.000000 1.000000 0.000000
usemtl None
s off
f 60//93 62//93 61//93 59//93
f 62//94 66//94 65//94 61//94
f 66//95 64//95 63//95 65//95
f 64//96 60//96 59//96 63//96
f 59//97 61//97 65//97 63//97
f 64//98 66//98 62//98 60//98
o Cube.006
v -4.009534 2.012142 -2.011297
v -4.009534 4.012142 -2.011297
v -4.009534 2.012142 -4.011297
v -4.009534 4.012142 -4.011297
v -2.009534 2.012142 -2.011297
v -2.009534 4.012142 -2.011297
v -2.009534 2.012142 -4.011297
v -2.009534 4.012142 -4.011297
vn -1.000000 0.000000 0.000000
vn 0.000000 0.000000 -1.000000
vn 1.000000 0.000000 0.000000
vn 0.000000 0.000000 1.000000
vn 0.000000 -1.000000 0.000000
vn 0.000000 1.000000 0.000000
usemtl None
s off
f 68//99 70//99 69//99 67//99
f 70//100 74//100 73//100 69//100
f 74//101 72//101 71//101 73//101
f 72//102 68//102 67//102 71//102
f 67//103 69//103 73//103 71//103
f 72//104 74//104 70//104 68//104
o Cube.005
v 2.001382 -3.983449 4.010842
v 2.001382 -1.983449 4.010842
v 2.001382 -3.983449 2.010842
v 2.001382 -1.983449 2.010842
v 4.001382 -3.983449 4.010842
v 4.001382 -1.983449 4.010842
v 4.001382 -3.983449 2.010842
v 4.001382 -1.983449 2.010842
vn -1.000000 0.000000 0.000000
vn 0.000000 0.000000 -1.000000
vn 1.000000 0.000000 0.000000
vn 0.000000 0.000000 1.000000
vn 0.000000 -1.000000 0.000000
vn 0.000000 1.000000 0.000000
usemtl None
s off
f 76//105 78//105 77//105 75//105
f 78//106 82//106 81//106 77//106
f 82//107 80//107 79//107 81//107
f 80//108 76//108 75//108 79//108
f 75//109 77//109 81//109 79//109
f 80//110 82//110 78//110 76//110
o Cube.004
v -4.010545 -3.983449 3.994286
v -4.010545 -1.983449 3.994286
v -4.010545 -3.983449 1.994286
v -4.010545 -1.983449 1.994286
v -2.010545 -3.983449 3.994286
v -2.010545 -1.983449 3.994286
v -2.010545 -3.983449 1.994286
v -2.010545 -1.983449 1.994286
vn -1.000000 0.000000 0.000000
vn 0.000000 0.000000 -1.000000
vn 1.000000 0.000000 0.000000
vn 0.000000 0.000000 1.000000
vn 0.000000 -1.000000 0.000000
vn 0.000000 1.000000 0.000000
usemtl None
s off
f 84//111 86//111 85//111 83//111
f 86//112 90//112 89//112 85//112
f 90//113 88//113 87//113 89//113
f 88//114 84//114 83//114 87//114
f 83//115 85//115 89//115 87//115
f 88//116 90//116 86//116 84//116
o Cube.003
v -4.001992 -3.983449 -2.008482
v -4.001992 -1.983449 -2.008482
v -4.001992 -3.983449 -4.008482
v -4.001992 -1.983449 -4.008482
v -2.001992 -3.983449 -2.008482
v -2.001992 -1.983449 -2.008482
v -2.001992 -3.983449 -4.008482
v -2.001992 -1.983449 -4.008482
vn -1.000000 0.000000 0.000000
vn 0.000000 0.000000 -1.000000
vn 1.000000 0.000000 0.000000
vn 0.000000 0.000000 1.000000
vn 0.000000 -1.000000 0.000000
vn 0.000000 1.000000 0.000000
usemtl None
s off
f 92//117 94//117 93//117 91//117
f 94//118 98//118 97//118 93//118
f 98//119 96//119 95//119 97//119
f 96//120 92//120 91//120 95//120
f 91//121 93//121 97//121 95//121
f 96//122 98//122 94//122 92//122
o Cube.002
v 2.001382 -3.983449 -1.984683
v 2.001382 -1.983449 -1.984683
v 2.001382 -3.983449 -3.984683
v 2.001382 -1.983449 -3.984683
v 4.001382 -3.983449 -1.984683
v 4.001382 -1.983449 -1.984683
v 4.001382 -3.983449 -3.984683
v 4.001382 -1.983449 -3.984683
vn -1.000000 0.000000 0.000000
vn 0.000000 0.000000 -1.000000
vn 1.000000 0.000000 0.000000
vn 0.000000 0.000000 1.000000
vn 0.000000 -1.000000 0.000000
vn 0.000000 1.000000 0.000000
usemtl None
s off
f 100//123 102//123 101//123 99//123
f 102//124 106//124 105//124 101//124
f 106//125 104//125 103//125 105//125
f 104//126 100//126 99//126 103//126
f 99//127 101//127 105//127 103//127
f 104//128 106//128 102//128 100//128
o Cube
v 0.453684 -0.453684 -0.453684
v 0.453684 -0.453684 0.453684
v -0.453684 -0.453684 0.453684
v -0.453684 -0.453684 -0.453684
v 0.453685 0.453684 -0.453684
v 0.453684 0.453684 0.453685
v -0.453684 0.453684 0.453684
v -0.453684 0.453684 -0.453684
vn 0.000000 -1.000000 0.000000
vn 0.000000 1.000000 0.000000
vn 1.000000 0.000000 0.000000
vn -0.000000 -0.000000 1.000000
vn -1.000000 -0.000000 -0.000000
vn 0.000000 0.000000 -1.000000
usemtl Material
s off
f 107//129 108//129 109//129 110//129
f 111//130 114//130 113//130 112//130
f 107//131 111//131 112//131 108//131
f 108//132 112//132 113//132 109//132
f 109//133 113//133 114//133 110//133
f 111//134 107//134 110//134 114//134
