# Blender v2.79 (sub 0) OBJ File: ''
# www.blender.org
mtllib simple-4-columns.mtl
o Column_1_Cylinder
v -4.011159 -5.498165 3.956868
v -4.011159 -5.498165 -3.967933
v -4.304053 -6.205272 3.956868
v -4.304053 -6.205272 -3.967933
v -5.011159 -6.498165 3.956868
v -5.011159 -6.498165 -3.967933
v -5.718266 -6.205272 3.956868
v -5.718266 -6.205272 -3.967933
v -6.011159 -5.498165 3.956868
v -6.011159 -5.498165 -3.967933
v -5.718266 -4.791058 3.956868
v -5.718266 -4.791058 -3.967933
v -5.011159 -4.498165 3.956868
v -5.011159 -4.498165 -3.967933
v -4.304053 -4.791058 3.956868
v -4.304053 -4.791058 -3.967933
vn 0.9239 -0.3827 0.0000
vn 0.3827 -0.9239 0.0000
vn -0.3827 -0.9239 0.0000
vn -0.9239 -0.3827 0.0000
vn -0.9239 0.3827 0.0000
vn -0.3827 0.9239 0.0000
vn 0.0000 0.0000 -1.0000
vn 0.3827 0.9239 0.0000
vn 0.9239 0.3827 0.0000
vn 0.0000 0.0000 1.0000
usemtl None
s off
f 1//1 3//1 4//1 2//1
f 3//2 5//2 6//2 4//2
f 5//3 7//3 8//3 6//3
f 7//4 9//4 10//4 8//4
f 9//5 11//5 12//5 10//5
f 11//6 13//6 14//6 12//6
f 4//7 6//7 8//7 10//7 12//7 14//7 16//7 2//7
f 13//8 15//8 16//8 14//8
f 15//9 1//9 2//9 16//9
f 1//10 15//10 13//10 11//10 9//10 7//10 5//10 3//10
o Walls_Cube.001
v -7.896005 9.542783 3.933597
v -7.896005 9.542783 -3.933597
v 7.896005 9.542783 3.933597
v 7.896005 9.542783 -3.933597
v -7.896005 -9.542783 3.933597
v -7.896005 -9.542783 -3.933597
v 7.896005 -9.542783 3.933597
v 7.896005 -9.542783 -3.933597
v -7.896005 9.542783 3.933597
v -7.896005 9.542783 -3.933597
v 7.896005 9.542783 3.933597
v 7.896005 9.542783 -3.933597
v -7.896005 -9.542783 3.933597
v -7.896005 -9.542783 -3.933597
v 7.896005 -9.542783 3.933597
v 7.896005 -9.542783 -3.933597
v -8.141633 9.839639 4.055963
v -8.141633 9.839639 -4.055963
v 8.141633 9.839639 4.055963
v 8.141633 9.839639 -4.055963
v -8.141633 -9.839639 4.055963
v -8.141633 -9.839639 -4.055963
v 8.141633 -9.839639 4.055963
v 8.141633 -9.839639 -4.055963
vn 0.0000 -1.0000 0.0000
vn -1.0000 0.0000 0.0000
vn 0.0000 1.0000 0.0000
vn 1.0000 0.0000 0.0000
vn 0.0000 0.0000 -1.0000
vn 0.0000 0.0000 1.0000
usemtl None
s off
f 17//11 18//11 20//11 19//11
f 19//12 20//12 24//12 23//12
f 23//13 24//13 22//13 21//13
f 21//14 22//14 18//14 17//14
f 19//15 23//15 21//15 17//15
f 24//16 20//16 18//16 22//16
f 25//11 26//11 28//11 27//11
f 27//12 28//12 32//12 31//12
f 31//13 32//13 30//13 29//13
f 29//14 30//14 26//14 25//14
f 27//15 31//15 29//15 25//15
f 32//16 28//16 26//16 30//16
f 33//13 35//13 36//13 34//13
f 35//14 39//14 40//14 36//14
f 39//11 37//11 38//11 40//11
f 37//12 33//12 34//12 38//12
f 35//16 33//16 37//16 39//16
f 40//15 38//15 34//15 36//15
o Column_2_Cylinder.001
v 5.516498 -5.498165 3.956868
v 5.516498 -5.498165 -3.967933
v 5.223605 -6.205272 3.956868
v 5.223605 -6.205272 -3.967933
v 4.516498 -6.498165 3.956868
v 4.516498 -6.498165 -3.967933
v 3.809391 -6.205272 3.956868
v 3.809391 -6.205272 -3.967933
v 3.516498 -5.498165 3.956868
v 3.516498 -5.498165 -3.967933
v 3.809391 -4.791058 3.956868
v 3.809391 -4.791058 -3.967933
v 4.516498 -4.498165 3.956868
v 4.516498 -4.498165 -3.967933
v 5.223605 -4.791058 3.956868
v 5.223605 -4.791058 -3.967933
vn 0.9239 -0.3827 0.0000
vn 0.3827 -0.9239 0.0000
vn -0.3827 -0.9239 0.0000
vn -0.9239 -0.3827 0.0000
vn -0.9239 0.3827 0.0000
vn -0.3827 0.9239 0.0000
vn 0.0000 0.0000 -1.0000
vn 0.3827 0.9239 0.0000
vn 0.9239 0.3827 0.0000
vn 0.0000 0.0000 1.0000
usemtl None
s off
f 41//17 43//17 44//17 42//17
f 43//18 45//18 46//18 44//18
f 45//19 47//19 48//19 46//19
f 47//20 49//20 50//20 48//20
f 49//21 51//21 52//21 50//21
f 51//22 53//22 54//22 52//22
f 44//23 46//23 48//23 50//23 52//23 54//23 56//23 42//23
f 53//24 55//24 56//24 54//24
f 55//25 41//25 42//25 56//25
f 41//26 55//26 53//26 51//26 49//26 47//26 45//26 43//26
o Column_3_Cylinder.003
v -4.011159 7.145082 3.956868
v -4.011159 7.145082 -3.967933
v -4.304053 6.437976 3.956868
v -4.304053 6.437976 -3.967933
v -5.011159 6.145082 3.956868
v -5.011159 6.145082 -3.967933
v -5.718266 6.437976 3.956868
v -5.718266 6.437976 -3.967933
v -6.011159 7.145082 3.956868
v -6.011159 7.145082 -3.967933
v -5.718266 7.852190 3.956868
v -5.718266 7.852190 -3.967933
v -5.011159 8.145082 3.956868
v -5.011159 8.145082 -3.967933
v -4.304053 7.852190 3.956868
v -4.304053 7.852190 -3.967933
vn 0.9239 -0.3827 0.0000
vn 0.3827 -0.9239 0.0000
vn -0.3827 -0.9239 0.0000
vn -0.9239 -0.3827 0.0000
vn -0.9239 0.3827 0.0000
vn -0.3827 0.9239 0.0000
vn 0.0000 0.0000 -1.0000
vn 0.3827 0.9239 0.0000
vn 0.9239 0.3827 0.0000
vn 0.0000 0.0000 1.0000
usemtl None
s off
f 57//27 59//27 60//27 58//27
f 59//28 61//28 62//28 60//28
f 61//29 63//29 64//29 62//29
f 63//30 65//30 66//30 64//30
f 65//31 67//31 68//31 66//31
f 67//32 69//32 70//32 68//32
f 60//33 62//33 64//33 66//33 68//33 70//33 72//33 58//33
f 69//34 71//34 72//34 70//34
f 71//35 57//35 58//35 72//35
f 57//36 71//36 69//36 67//36 65//36 63//36 61//36 59//36
o Column_4_Cylinder.002
v 5.516498 7.145082 3.956868
v 5.516498 7.145082 -3.967933
v 5.223605 6.437976 3.956868
v 5.223605 6.437976 -3.967933
v 4.516498 6.145082 3.956868
v 4.516498 6.145082 -3.967933
v 3.809391 6.437976 3.956868
v 3.809391 6.437976 -3.967933
v 3.516498 7.145082 3.956868
v 3.516498 7.145082 -3.967933
v 3.809391 7.852190 3.956868
v 3.809391 7.852190 -3.967933
v 4.516498 8.145082 3.956868
v 4.516498 8.145082 -3.967933
v 5.223605 7.852190 3.956868
v 5.223605 7.852190 -3.967933
vn 0.9239 -0.3827 0.0000
vn 0.3827 -0.9239 0.0000
vn -0.3827 -0.9239 0.0000
vn -0.9239 -0.3827 0.0000
vn -0.9239 0.3827 0.0000
vn -0.3827 0.9239 0.0000
vn 0.0000 0.0000 -1.0000
vn 0.3827 0.9239 0.0000
vn 0.9239 0.3827 0.0000
vn 0.0000 0.0000 1.0000
usemtl None
s off
f 73//37 75//37 76//37 74//37
f 75//38 77//38 78//38 76//38
f 77//39 79//39 80//39 78//39
f 79//40 81//40 82//40 80//40
f 81//41 83//41 84//41 82//41
f 83//42 85//42 86//42 84//42
f 76//43 78//43 80//43 82//43 84//43 86//43 88//43 74//43
f 85//44 87//44 88//44 86//44
f 87//45 73//45 74//45 88//45
f 73//46 87//46 85//46 83//46 81//46 79//46 77//46 75//46
