# Blender v2.79 (sub 0) OBJ File: ''
# www.blender.org
mtllib simple-4-columns.mtl
o Column_1_Cylinder
v -4.011159 -5.498165 3.956868
v -4.011159 -5.498165 -3.967933
v -4.304053 -6.205272 3.956868
v -4.304053 -6.205272 -3.967933
v -5.011159 -6.498165 3.956868
v -5.011159 -6.498165 -3.967933
v -5.718266 -6.205272 3.956868
v -5.718266 -6.205272 -3.967933
v -6.011159 -5.498165 3.956868
v -6.011159 -5.498165 -3.967933
v -5.718266 -4.791058 3.956868
v -5.718266 -4.791058 -3.967933
v -5.011159 -4.498165 3.956868
v -5.011159 -4.498165 -3.967933
v -4.304053 -4.791058 3.956868
v -4.304053 -4.791058 -3.967933
vn 0.9239 -0.3827 0.0000
vn 0.3827 -0.9239 0.0000
vn -0.3827 -0.9239 0.0000
vn -0.9239 -0.3827 0.0000
vn -0.9239 0.3827 0.0000
vn -0.3827 0.9239 0.0000
vn 0.0000 0.0000 -1.0000
vn 0.3827 0.9239 0.0000
vn 0.9239 0.3827 0.0000
vn 0.0000 0.0000 1.0000
usemtl None
s off
f 1//1 3//1 4//1 2//1
f 3//2 5//2 6//2 4//2
f 5//3 7//3 8//3 6//3
f 7//4 9//4 10//4 8//4
f 9//5 11//5 12//5 10//5
f 11//6 13//6 14//6 12//6
f 4//7 6//7 8//7 10//7 12//7 14//7 16//7 2//7
f 13//8 15//8 16//8 14//8
f 15//9 1//9 2//9 16//9
f 1//10 15//10 13//10 11//10 9//10 7//10 5//10 3//10
o Column_2_Cylinder.001
v 5.516498 -5.498165 3.956868
v 5.516498 -5.498165 -3.967933
v 5.223605 -6.205272 3.956868
v 5.223605 -6.205272 -3.967933
v 4.516498 -6.498165 3.956868
v 4.516498 -6.498165 -3.967933
v 3.809391 -6.205272 3.956868
v 3.809391 -6.205272 -3.967933
v 3.516498 -5.498165 3.956868
v 3.516498 -5.498165 -3.967933
v 3.809391 -4.791058 3.956868
v 3.809391 -4.791058 -3.967933
v 4.516498 -4.498165 3.956868
v 4.516498 -4.498165 -3.967933
v 5.223605 -4.791058 3.956868
v 5.223605 -4.791058 -3.967933
vn 0.9239 -0.3827 0.0000
vn 0.3827 -0.9239 0.0000
vn -0.3827 -0.9239 0.0000
vn -0.9239 -0.3827 0.0000
vn -0.9239 0.3827 0.0000
vn -0.3827 0.9239 0.0000
vn 0.0000 0.0000 -1.0000
vn 0.3827 0.9239 0.0000
vn 0.9239 0.3827 0.0000
vn 0.0000 0.0000 1.0000
usemtl None
s off
f 17//11 19//11 20//11 18//11
f 19//12 21//12 22//12 20//12
f 21//13 23//13 24//13 22//13
f 23//14 25//14 26//14 24//14
f 25//15 27//15 28//15 26//15
f 27//16 29//16 30//16 28//16
f 20//17 22//17 24//17 26//17 28//17 30//17 32//17 18//17
f 29//18 31//18 32//18 30//18
f 31//19 17//19 18//19 32//19
f 17//20 31//20 29//20 27//20 25//20 23//20 21//20 19//20
o Column_3_Cylinder.003
v -4.011159 7.145082 3.956868
v -4.011159 7.145082 -3.967933
v -4.304053 6.437976 3.956868
v -4.304053 6.437976 -3.967933
v -5.011159 6.145082 3.956868
v -5.011159 6.145082 -3.967933
v -5.718266 6.437976 3.956868
v -5.718266 6.437976 -3.967933
v -6.011159 7.145082 3.956868
v -6.011159 7.145082 -3.967933
v -5.718266 7.852190 3.956868
v -5.718266 7.852190 -3.967933
v -5.011159 8.145082 3.956868
v -5.011159 8.145082 -3.967933
v -4.304053 7.852190 3.956868
v -4.304053 7.852190 -3.967933
vn 0.9239 -0.3827 0.0000
vn 0.3827 -0.9239 0.0000
vn -0.3827 -0.9239 0.0000
vn -0.9239 -0.3827 0.0000
vn -0.9239 0.3827 0.0000
vn -0.3827 0.9239 0.0000
vn 0.0000 0.0000 -1.0000
vn 0.3827 0.9239 0.0000
vn 0.9239 0.3827 0.0000
vn 0.0000 0.0000 1.0000
usemtl None
s off
f 33//21 35//21 36//21 34//21
f 35//22 37//22 38//22 36//22
f 37//23 39//23 40//23 38//23
f 39//24 41//24 42//24 40//24
f 41//25 43//25 44//25 42//25
f 43//26 45//26 46//26 44//26
f 36//27 38//27 40//27 42//27 44//27 46//27 48//27 34//27
f 45//28 47//28 48//28 46//28
f 47//29 33//29 34//29 48//29
f 33//30 47//30 45//30 43//30 41//30 39//30 37//30 35//30
o Column_4_Cylinder.002
v 5.516498 7.145082 3.956868
v 5.516498 7.145082 -3.967933
v 5.223605 6.437976 3.956868
v 5.223605 6.437976 -3.967933
v 4.516498 6.145082 3.956868
v 4.516498 6.145082 -3.967933
v 3.809391 6.437976 3.956868
v 3.809391 6.437976 -3.967933
v 3.516498 7.145082 3.956868
v 3.516498 7.145082 -3.967933
v 3.809391 7.852190 3.956868
v 3.809391 7.852190 -3.967933
v 4.516498 8.145082 3.956868
v 4.516498 8.145082 -3.967933
v 5.223605 7.852190 3.956868
v 5.223605 7.852190 -3.967933
vn 0.9239 -0.3827 0.0000
vn 0.3827 -0.9239 0.0000
vn -0.3827 -0.9239 0.0000
vn -0.9239 -0.3827 0.0000
vn -0.9239 0.3827 0.0000
vn -0.3827 0.9239 0.0000
vn 0.0000 0.0000 -1.0000
vn 0.3827 0.9239 0.0000
vn 0.9239 0.3827 0.0000
vn 0.0000 0.0000 1.0000
usemtl None
s off
f 49//31 51//31 52//31 50//31
f 51//32 53//32 54//32 52//32
f 53//33 55//33 56//33 54//33
f 55//34 57//34 58//34 56//34
f 57//35 59//35 60//35 58//35
f 59//36 61//36 62//36 60//36
f 52//37 54//37 56//37 58//37 60//37 62//37 64//37 50//37
f 61//38 63//38 64//38 62//38
f 63//39 49//39 50//39 64//39
f 49//40 63//40 61//40 59//40 57//40 55//40 53//40 51//40
o Walls_Cube.004
v -6.806422 -9.682267 -3.934740
v -6.806422 -9.682267 3.934740
v 6.806422 -9.682267 -3.934740
v 6.806422 -9.682267 3.934740
v -6.806422 9.682267 -3.934740
v -6.806422 9.682267 3.934740
v 6.806422 9.682267 -3.934740
v 6.806422 9.682267 3.934740
v -7.220035 -10.270640 -4.173847
v -7.220035 -10.270640 4.173847
v 7.220035 -10.270640 -4.173847
v 7.220035 -10.270640 4.173847
v -7.220035 10.270640 -4.173847
v -7.220035 10.270640 4.173847
v 7.220035 10.270640 -4.173847
v 7.220035 10.270640 4.173847
vn 0.0000 1.0000 0.0000
vn -1.0000 0.0000 0.0000
vn 0.0000 -1.0000 0.0000
vn 1.0000 0.0000 0.0000
vn 0.0000 0.0000 1.0000
vn 0.0000 0.0000 -1.0000
usemtl None
s off
f 65//41 66//41 68//41 67//41
f 67//42 68//42 72//42 71//42
f 71//43 72//43 70//43 69//43
f 69//44 70//44 66//44 65//44
f 67//45 71//45 69//45 65//45
f 72//46 68//46 66//46 70//46
f 73//43 75//43 76//43 74//43
f 75//44 79//44 80//44 76//44
f 79//41 77//41 78//41 80//41
f 77//42 73//42 74//42 78//42
f 75//46 73//46 77//46 79//46
f 80//45 78//45 74//45 76//45
