# Blender v2.79 (sub 0) OBJ File: ''
# www.blender.org
mtllib pos_y_fwd_pos_z_up.mtl
o Icosphere
v 3.661176 -0.127265 0.000035
v 4.384784 -0.652990 0.552815
v 3.384789 -0.977914 0.552815
v 2.766750 -0.127265 0.552819
v 3.384789 0.723384 0.552815
v 4.384784 0.398461 0.552815
v 3.937564 -0.977914 1.447255
v 2.937569 -0.652990 1.447254
v 2.937569 0.398461 1.447254
v 3.937564 0.723384 1.447255
v 4.555603 -0.127265 1.447250
v 3.661176 -0.127265 2.000035
v 3.498721 -0.627260 0.149380
v 4.086499 -0.436276 0.149381
v 3.924045 -0.936276 0.474297
v 4.511824 -0.127265 0.474299
v 4.086499 0.181747 0.149381
v 3.135447 -0.127265 0.149383
v 2.972987 -0.627262 0.474299
v 3.498721 0.372731 0.149380
v 2.972987 0.372732 0.474299
v 3.924045 0.681747 0.474297
v 4.612234 -0.436277 1.000035
v 4.612234 0.181748 1.000035
v 3.661176 -1.127265 1.000035
v 4.248962 -0.936281 1.000035
v 2.710119 -0.436277 1.000035
v 3.073391 -0.936281 1.000035
v 3.073391 0.681752 1.000035
v 2.710119 0.181748 1.000035
v 4.248962 0.681752 1.000035
v 3.661176 0.872735 1.000035
v 4.349366 -0.627262 1.525771
v 3.398308 -0.936276 1.525772
v 2.810529 -0.127265 1.525771
v 3.398308 0.681747 1.525772
v 4.349366 0.372732 1.525771
v 3.823632 -0.627260 1.850689
v 4.186906 -0.127265 1.850687
v 3.235854 -0.436276 1.850689
v 3.235854 0.181747 1.850689
v 3.823632 0.372731 1.850689
vn 0.1024 -0.3151 -0.9435
vn 0.7002 -0.2680 -0.6617
vn -0.2680 -0.1947 -0.9435
vn -0.2680 0.1947 -0.9435
vn 0.1024 0.3151 -0.9435
vn 0.9050 -0.2680 -0.3304
vn 0.0247 -0.9435 -0.3304
vn -0.8897 -0.3151 -0.3304
vn -0.5746 0.7488 -0.3304
vn 0.5346 0.7779 -0.3304
vn 0.8026 -0.5831 -0.1256
vn -0.3066 -0.9435 -0.1256
vn -0.9921 0.0000 -0.1256
vn -0.3066 0.9435 -0.1256
vn 0.8026 0.5831 -0.1256
vn 0.4089 -0.6284 0.6617
vn -0.4713 -0.5831 0.6617
vn -0.7002 0.2680 0.6617
vn 0.0385 0.7488 0.6617
vn 0.7240 0.1947 0.6617
vn 0.2680 0.1947 0.9435
vn 0.4911 0.3568 0.7947
vn 0.4089 0.6284 0.6617
vn -0.1024 0.3151 0.9435
vn -0.1876 0.5773 0.7947
vn -0.4713 0.5831 0.6617
vn -0.3313 0.0000 0.9435
vn -0.6071 0.0000 0.7947
vn -0.7002 -0.2680 0.6617
vn -0.1024 -0.3151 0.9435
vn -0.1876 -0.5773 0.7947
vn 0.0385 -0.7488 0.6617
vn 0.2680 -0.1947 0.9435
vn 0.4911 -0.3568 0.7947
vn 0.7240 -0.1947 0.6617
vn 0.8897 0.3151 0.3304
vn 0.7947 0.5773 0.1876
vn 0.5746 0.7488 0.3304
vn -0.0247 0.9435 0.3304
vn -0.3035 0.9342 0.1876
vn -0.5346 0.7779 0.3304
vn -0.9050 0.2680 0.3304
vn -0.9822 0.0000 0.1876
vn -0.9050 -0.2680 0.3304
vn -0.5346 -0.7779 0.3304
vn -0.3035 -0.9342 0.1876
vn -0.0247 -0.9435 0.3304
vn 0.5746 -0.7488 0.3304
vn 0.7947 -0.5773 0.1876
vn 0.8897 -0.3151 0.3304
vn 0.3066 0.9435 0.1256
vn 0.3035 0.9342 -0.1876
vn 0.0247 0.9435 -0.3304
vn -0.8026 0.5831 0.1256
vn -0.7947 0.5773 -0.1876
vn -0.8897 0.3151 -0.3304
vn -0.8026 -0.5831 0.1256
vn -0.7947 -0.5773 -0.1876
vn -0.5746 -0.7488 -0.3304
vn 0.3066 -0.9435 0.1256
vn 0.3035 -0.9342 -0.1876
vn 0.5346 -0.7779 -0.3304
vn 0.9921 0.0000 0.1256
vn 0.9822 0.0000 -0.1876
vn 0.9050 0.2680 -0.3304
vn 0.4713 0.5831 -0.6617
vn 0.1876 0.5773 -0.7947
vn -0.0385 0.7488 -0.6617
vn -0.4089 0.6284 -0.6617
vn -0.4911 0.3568 -0.7947
vn -0.7240 0.1947 -0.6617
vn -0.7240 -0.1947 -0.6617
vn -0.4911 -0.3568 -0.7947
vn -0.4089 -0.6284 -0.6617
vn 0.7002 0.2680 -0.6617
vn 0.6071 0.0000 -0.7947
vn 0.3313 0.0000 -0.9435
vn -0.0385 -0.7488 -0.6617
vn 0.1876 -0.5773 -0.7947
vn 0.4713 -0.5831 -0.6617
usemtl None
s off
f 1//1 14//1 13//1
f 2//2 14//2 16//2
f 1//3 13//3 18//3
f 1//4 18//4 20//4
f 1//5 20//5 17//5
f 2//6 16//6 23//6
f 3//7 15//7 25//7
f 4//8 19//8 27//8
f 5//9 21//9 29//9
f 6//10 22//10 31//10
f 2//11 23//11 26//11
f 3//12 25//12 28//12
f 4//13 27//13 30//13
f 5//14 29//14 32//14
f 6//15 31//15 24//15
f 7//16 33//16 38//16
f 8//17 34//17 40//17
f 9//18 35//18 41//18
f 10//19 36//19 42//19
f 11//20 37//20 39//20
f 39//21 42//21 12//21
f 39//22 37//22 42//22
f 37//23 10//23 42//23
f 42//24 41//24 12//24
f 42//25 36//25 41//25
f 36//26 9//26 41//26
f 41//27 40//27 12//27
f 41//28 35//28 40//28
f 35//29 8//29 40//29
f 40//30 38//30 12//30
f 40//31 34//31 38//31
f 34//32 7//32 38//32
f 38//33 39//33 12//33
f 38//34 33//34 39//34
f 33//35 11//35 39//35
f 24//36 37//36 11//36
f 24//37 31//37 37//37
f 31//38 10//38 37//38
f 32//39 36//39 10//39
f 32//40 29//40 36//40
f 29//41 9//41 36//41
f 30//42 35//42 9//42
f 30//43 27//43 35//43
f 27//44 8//44 35//44
f 28//45 34//45 8//45
f 28//46 25//46 34//46
f 25//47 7//47 34//47
f 26//48 33//48 7//48
f 26//49 23//49 33//49
f 23//50 11//50 33//50
f 31//51 32//51 10//51
f 31//52 22//52 32//52
f 22//53 5//53 32//53
f 29//54 30//54 9//54
f 29//55 21//55 30//55
f 21//56 4//56 30//56
f 27//57 28//57 8//57
f 27//58 19//58 28//58
f 19//59 3//59 28//59
f 25//60 26//60 7//60
f 25//61 15//61 26//61
f 15//62 2//62 26//62
f 23//63 24//63 11//63
f 23//64 16//64 24//64
f 16//65 6//65 24//65
f 17//66 22//66 6//66
f 17//67 20//67 22//67
f 20//68 5//68 22//68
f 20//69 21//69 5//69
f 20//70 18//70 21//70
f 18//71 4//71 21//71
f 18//72 19//72 4//72
f 18//73 13//73 19//73
f 13//74 3//74 19//74
f 16//75 17//75 6//75
f 16//76 14//76 17//76
f 14//77 1//77 17//77
f 13//78 15//78 3//78
f 13//79 14//79 15//79
f 14//80 2//80 15//80
o Cone
v 0.000000 1.000000 0.025374
v 0.195090 0.980785 0.025374
v 0.382683 0.923880 0.025374
v 0.555570 0.831470 0.025374
v 0.707107 0.707107 0.025374
v 0.831470 0.555570 0.025374
v 0.923880 0.382683 0.025374
v 0.980785 0.195090 0.025374
v 1.000000 0.000000 0.025374
v 0.980785 -0.195090 0.025374
v 0.923880 -0.382683 0.025374
v 0.831470 -0.555570 0.025374
v 0.707107 -0.707107 0.025374
v 0.555570 -0.831470 0.025374
v 0.382683 -0.923880 0.025374
v 0.195090 -0.980785 0.025374
v -0.000000 -1.000000 0.025374
v -0.195091 -0.980785 0.025374
v -0.382684 -0.923879 0.025374
v -0.555571 -0.831469 0.025374
v -0.707107 -0.707106 0.025374
v -0.831470 -0.555570 0.025374
v -0.923880 -0.382683 0.025374
v 0.000000 0.000000 2.025374
v -0.980785 -0.195089 0.025374
v -1.000000 0.000001 0.025374
v -0.980785 0.195091 0.025374
v -0.923879 0.382684 0.025374
v -0.831469 0.555571 0.025374
v -0.707106 0.707108 0.025374
v -0.555569 0.831470 0.025374
v -0.382682 0.923880 0.025374
v -0.195089 0.980786 0.025374
vn 0.0878 0.8910 0.4455
vn 0.2599 0.8567 0.4455
vn 0.4220 0.7896 0.4455
vn 0.5680 0.6921 0.4455
vn 0.6921 0.5680 0.4455
vn 0.7896 0.4220 0.4455
vn 0.8567 0.2599 0.4455
vn 0.8910 0.0878 0.4455
vn 0.8910 -0.0878 0.4455
vn 0.8567 -0.2599 0.4455
vn 0.7896 -0.4220 0.4455
vn 0.6921 -0.5680 0.4455
vn 0.5680 -0.6921 0.4455
vn 0.4220 -0.7896 0.4455
vn 0.2599 -0.8567 0.4455
vn 0.0878 -0.8910 0.4455
vn -0.0878 -0.8910 0.4455
vn -0.2599 -0.8567 0.4455
vn -0.4220 -0.7896 0.4455
vn -0.5680 -0.6921 0.4455
vn -0.6921 -0.5680 0.4455
vn -0.7896 -0.4220 0.4455
vn -0.8567 -0.2599 0.4455
vn -0.8910 -0.0878 0.4455
vn -0.8910 0.0878 0.4455
vn -0.8567 0.2599 0.4455
vn -0.7896 0.4220 0.4455
vn -0.6921 0.5680 0.4455
vn -0.5680 0.6921 0.4455
vn -0.4220 0.7896 0.4455
vn -0.2599 0.8567 0.4455
vn -0.0878 0.8910 0.4455
vn -0.0000 0.0000 -1.0000
usemtl None
s off
f 43//81 66//81 44//81
f 44//82 66//82 45//82
f 45//83 66//83 46//83
f 46//84 66//84 47//84
f 47//85 66//85 48//85
f 48//86 66//86 49//86
f 49//87 66//87 50//87
f 50//88 66//88 51//88
f 51//89 66//89 52//89
f 52//90 66//90 53//90
f 53//91 66//91 54//91
f 54//92 66//92 55//92
f 55//93 66//93 56//93
f 56//94 66//94 57//94
f 57//95 66//95 58//95
f 58//96 66//96 59//96
f 59//97 66//97 60//97
f 60//98 66//98 61//98
f 61//99 66//99 62//99
f 62//100 66//100 63//100
f 63//101 66//101 64//101
f 64//102 66//102 65//102
f 65//103 66//103 67//103
f 67//104 66//104 68//104
f 68//105 66//105 69//105
f 69//106 66//106 70//106
f 70//107 66//107 71//107
f 71//108 66//108 72//108
f 72//109 66//109 73//109
f 73//110 66//110 74//110
f 74//111 66//111 75//111
f 75//112 66//112 43//112
f 43//113 44//113 45//113 46//113 47//113 48//113 49//113 50//113 51//113 52//113 53//113 54//113 55//113 56//113 57//113 58//113 59//113 60//113 61//113 62//113 63//113 64//113 65//113 67//113 68//113 69//113 70//113 71//113 72//113 73//113 74//113 75//113
o Cube
v 1.000000 4.107162 -0.055958
v 1.000000 2.107162 -0.055958
v -1.000000 2.107162 -0.055958
v -1.000000 4.107162 -0.055958
v 1.000000 4.107161 1.944042
v 0.999999 2.107161 1.944042
v -1.000000 2.107162 1.944042
v -1.000000 4.107162 1.944042
vn 0.0000 0.0000 -1.0000
vn -0.0000 0.0000 1.0000
vn 1.0000 -0.0000 0.0000
vn -0.0000 -1.0000 0.0000
vn -1.0000 0.0000 -0.0000
vn 0.0000 1.0000 -0.0000
usemtl Material
s off
f 76//114 77//114 78//114 79//114
f 80//115 83//115 82//115 81//115
f 76//116 80//116 81//116 77//116
f 77//117 81//117 82//117 78//117
f 78//118 82//118 83//118 79//118
f 80//119 76//119 79//119 83//119
